<svg id="_.imagem" data-name=".imagem" xmlns="http://www.w3.org/2000/svg" width="350" height="176" viewBox="0 0 350 176">
  <g id="Grupo_31687" data-name="Grupo 31687">
    <rect id="_.imagem-background" data-name=".imagem-background" width="350" height="176" fill="#e0e9f8"/>
    <path id="_.imagem-2" data-name=".imagem" d="M33.184,87a32.669,32.669,0,0,1-12.917-2.636A33.056,33.056,0,0,1,9.72,77.175a33.757,33.757,0,0,1,0-47.442,33.056,33.056,0,0,1,10.548-7.189,32.87,32.87,0,0,1,29.358,1.764L29.9,58.983H65.92A33.659,33.659,0,0,1,54.748,78.953,32.843,32.843,0,0,1,33.184,87ZM97,58.984v0H65.92a34.253,34.253,0,0,0,.449-5.53A33.716,33.716,0,0,0,49.626,24.307L63.451,0,97,58.983Z" transform="translate(126 45)" fill="#c5d4eb"/>
  </g>
</svg>
