<?xml version="1.0" encoding="UTF-8" standalone="no"?><!DOCTYPE svg PUBLIC "-//W3C//DTD SVG 1.1//EN" "http://www.w3.org/Graphics/SVG/1.1/DTD/svg11.dtd"><svg width="100%" height="100%" viewBox="0 0 1042 450" version="1.1" xmlns="http://www.w3.org/2000/svg" xmlns:xlink="http://www.w3.org/1999/xlink" xml:space="preserve" xmlns:serif="http://www.serif.com/" style="fill-rule:evenodd;clip-rule:evenodd;stroke-linejoin:round;stroke-miterlimit:2;"><g id="img_verde"><g id="Grupo_41248" opacity="0.13"><ellipse id="Elipse_559" cx="810.993" cy="385.26" rx="183.358" ry="165.248" style="fill-opacity:0.38;"/><g id="Grupo_41233" opacity="0.21"><path id="Caminho_279275" d="M679.7,-43.743l-101.213,91.214c-6.608,9.641 -12.57,19.666 -17.85,30.014l152.368,-137.316c-11.429,4.732 -22.551,10.104 -33.305,16.088Z" style="fill-rule:nonzero;"/><path id="Caminho_279276" d="M761.65,-75.661l-218.572,196.987c-1.791,5.972 -3.355,12.029 -4.691,18.171l243.408,-219.366c-6.799,1.196 -13.515,2.599 -20.145,4.208Z" style="fill-rule:nonzero;"/><path id="Caminho_279277" d="M817.837,-84.343l-284.398,256.303c-0.417,4.857 -0.698,9.752 -0.844,14.685l301.538,-271.751c-5.469,0.123 -10.901,0.378 -16.296,0.763Z" style="fill-rule:nonzero;"/><path id="Caminho_279278" d="M864.505,-84.467l-331.204,298.494c0.34,4.267 0.788,8.507 1.344,12.72l343.975,-310.007c-4.675,-0.491 -9.378,-0.916 -14.115,-1.207Z" style="fill-rule:nonzero;"/><path id="Caminho_279279" d="M905.38,-79.361l-366.409,330.227c0.875,3.801 1.839,7.576 2.89,11.324l376.087,-338.949c-4.158,-0.937 -8.348,-1.805 -12.568,-2.602Z" style="fill-rule:nonzero;"/><path id="Caminho_279280" d="M941.956,-70.37l-393.008,354.189c1.297,3.435 2.687,6.84 4.123,10.216l400.209,-360.709c-3.739,-1.276 -7.512,-2.544 -11.324,-3.696Z" style="fill-rule:nonzero;"/><path id="Caminho_279281" d="M975.031,-58.24l-412.628,371.873c1.653,3.133 3.37,6.228 5.151,9.285l417.78,-376.517c-3.396,-1.601 -6.83,-3.148 -10.303,-4.641Z" style="fill-rule:nonzero;"/><path id="Caminho_279282" d="M1005.13,-43.416l-426.286,384.177c1.969,2.857 3.981,5.684 6.061,8.475l429.623,-387.194c-3.094,-1.875 -6.227,-3.695 -9.398,-5.458Z" style="fill-rule:nonzero;"/><path id="Caminho_279283" d="M1032.54,-26.18l-434.578,391.66c2.255,2.597 4.558,5.159 6.91,7.686l436.186,-393.11c-2.779,-2.119 -5.62,-4.208 -8.518,-6.236Z" style="fill-rule:nonzero;"/><path id="Caminho_279284" d="M1057.43,-6.661l-437.799,394.556c2.533,2.357 5.112,4.676 7.735,6.956l437.783,-394.546c-2.526,-2.362 -5.099,-4.684 -7.719,-6.966Z" style="fill-rule:nonzero;"/><path id="Caminho_279285" d="M1079.85,15.077l-436.083,393.023c2.815,2.115 5.669,4.187 8.56,6.215l434.433,-391.522c-2.257,-2.61 -4.561,-5.181 -6.91,-7.716Z" style="fill-rule:nonzero;"/><path id="Caminho_279286" d="M1099.78,39.066l-429.38,386.998c3.101,1.875 6.238,3.681 9.416,5.451l426.025,-383.953c-1.968,-2.868 -3.988,-5.7 -6.061,-8.496Z" style="fill-rule:nonzero;"/><path id="Caminho_279287" d="M1117.07,65.431l-417.442,376.212c3.411,1.596 6.857,3.135 10.337,4.615l412.225,-371.513c-1.645,-3.135 -3.352,-6.24 -5.12,-9.314Z" style="fill-rule:nonzero;"/><path id="Caminho_279288" d="M1131.48,94.387l-399.722,360.244c3.754,1.294 7.532,2.544 11.355,3.696l392.471,-353.703c-1.29,-3.463 -2.672,-6.85 -4.104,-10.237Z" style="fill-rule:nonzero;"/><path id="Caminho_279289" d="M1142.6,126.316l-375.43,338.33c4.165,0.931 8.357,1.817 12.583,2.584l365.703,-329.583c-0.852,-3.805 -1.827,-7.581 -2.856,-11.331Z" style="fill-rule:nonzero;"/><path id="Caminho_279290" d="M1149.71,161.846l-343.1,309.214c4.691,0.48 9.413,0.876 14.165,1.167l330.233,-297.629c-0.325,-4.279 -0.758,-8.529 -1.298,-12.752Z" style="fill-rule:nonzero;"/><path id="Caminho_279291" d="M1151.61,202.086l-300.349,270.686c5.492,-0.145 10.946,-0.418 16.361,-0.818l283.082,-255.11c0.437,-4.896 0.739,-9.816 0.906,-14.758Z" style="fill-rule:nonzero;"/><path id="Caminho_279292" d="M1145.61,249.452l-241.788,217.905c6.852,-1.246 13.616,-2.714 20.292,-4.361l216.655,-195.254c1.825,-6.018 3.438,-12.114 4.841,-18.29Z" style="fill-rule:nonzero;"/><path id="Caminho_279293" d="M1122.65,312.078l-149.327,134.583c11.742,-4.955 23.151,-10.587 34.165,-16.865l96.448,-86.927c6.934,-9.87 13.185,-20.156 18.714,-30.791Z" style="fill-rule:nonzero;"/></g></g><g id="Grupo_41249"><ellipse id="Elipse_570" cx="160.895" cy="122.747" rx="222.794" ry="200.789" style="fill-opacity:0.09;"/><ellipse id="Elipse_571" cx="431.597" cy="299.737" rx="154.951" ry="139.649" style="fill-opacity:0.09;"/><ellipse id="Elipse_572" cx="509.075" cy="10.927" rx="77.478" ry="69.825" style="fill-opacity:0.09;"/></g></g></svg>