<?xml version="1.0" encoding="UTF-8"?><svg xmlns="http://www.w3.org/2000/svg" viewBox="0 0 703.27 220.78"><defs><style>.cls-1{fill:#fff;}.cls-2{isolation:isolate;}.cls-3{fill:#fdc761;}.cls-3,.cls-4,.cls-5{mix-blend-mode:multiply;}.cls-4{fill:#c2374c;}.cls-5{fill:#91a324;}.cls-6{fill:#010101;}</style></defs><g class="cls-2"><g id="Layer_1"><path class="cls-1" d="m179.63,75.59c2.63-3.29-.66-5.59-.66-5.59l-5.18-7.65s-2.39-3.21-1.4-8.47c.99-5.27-1.32-11.85-1.32-11.85,0,0,.11-.29.28-.77.05.16.12.31.19.46.11.23.36.36.6.39.27.04.48-.05.69-.23,1.08-.89,1.85-2.17,2.15-3.54.09-.42-.13-.91-.57-1.01-.16-.04-.33-.01-.48.04.21-.38.35-.81.38-1.28.11-.07.21-.14.31-.23,0,0,0,0,0,0,.21.34.48.68.89.81.5.15,1-.11,1.27-.52.18-.28.26-.63.36-.95.1-.33.2-.67.31-1,.13-.41-.15-.92-.57-1.01-.37-.08-.72.07-.91.38.06-.39.05-.77,0-1.17-.03-.22-.22-.4-.42-.5,0-.01.02-.02.03-.03.59-1.14.86-2.42.73-3.7-.05-.44-.34-.82-.82-.82-.14,0-.28.05-.41.12-.05-.47-.12-.94-.21-1.41,0,0,0,0,0,0,.18-.15.31-.37.3-.61-.02-.45-.36-.82-.82-.82-.64,0-1.21.27-1.65.68-.04-.37-.13-.72-.29-1.04.27-.07.55-.27.61-.57.17-.95.21-1.91.11-2.85,0-.21-.02-.42-.08-.62,0-.01,0-.03-.01-.04-.13-.79-.36-1.57-.68-2.32-.19-.45-.42-.92-.91-1.11-.4-.16-.76-.06-1.06.15-.18-.17-.38-.32-.6-.44l.29-.84c.16-.1.28-.25.32-.44.08-.4.16-.8.24-1.2.21-1.04-1.24-1.44-1.59-.44-.19.54-.37,1.09-.56,1.63-.15-.45-.25-.92-.28-1.39-.05-.44-.34-.82-.82-.82-.43,0-.85.38-.82.82.03.25.06.51.08.76-.02,0-.04-.02-.06-.02-.2-.29-.45-.54-.77-.73-.02-.01-.04-.01-.06-.02.1-.31.17-.63.17-.97,0-.01,0-.03,0-.04.32.04.69-.09.83-.39.25-.56.2-1.13-.07-1.6.04,0,.08,0,.11-.02.11-.03.2-.07.28-.15.19-.15.35-.39.32-.65-.04-.36-.07-.73-.16-1.08-.08-.33-.21-.68-.41-.96-.22-.3-.48-.57-.82-.72-.33-.14-.68-.25-1.04-.2-.26.03-.49.08-.72.21-.1.06-.18.12-.25.19-.26-.2-.59-.27-.92-.2,0,0,0,0,0,0,0,0,0,0,0,0-.04,0-.07,0-.11.02-.03,0-.05.03-.08.04-.03.01-.06.03-.08.04-.39.19-.68.55-.96.88,0,0,0,0,0,0-.04,0-.08,0-.12,0-.41.08-.69.34-1.01.59-.29.23-.59.46-.88.69-.3.24-.62.45-.83.78,0,0,0,.02-.01.02-.31-.42-.66-.81-1.05-1.15.11-.31.11-.65,0-.97-.03-.08-.06-.15-.1-.23.22.04.44.08.66.12.15.03.3.02.44-.06.12-.07.23-.2.26-.34.06-.28-.08-.64-.4-.7-.59-.11-1.18-.22-1.77-.33,0,0-.01,0-.02,0,.15-.14.25-.34.24-.57-.02-.41-.36-.86-.82-.82-.42.04-.78.21-1,.58-.18.32-.18.67-.13,1.02.04.25.13.5.27.71.07.11.16.21.25.31-.94-.28-1.88-.56-2.83-.84-.03,0-.06,0-.08-.01-.42-.37-.93-.63-1.5-.72,0-.14-.01-.29-.09-.42-.24-.41-.48-.83-.72-1.24.32-.12.62-.3.88-.53.33-.28.31-.88,0-1.16-.34-.31-.79-.3-1.14-.02,0,0,0,0,0,0-.04.02-.07.05-.11.07-.04.02-.08.04-.12.06-.12.04-.24.07-.36.1-.02,0-.04,0-.06,0-.22-.19-.52-.26-.79-.17,0,0-.01,0-.02,0-.01,0-.04-.02-.06-.04-.02-.02-.05-.04-.06-.05-.32-.29-.85-.34-1.16,0-.29.32-.34.85,0,1.16.03.03.07.05.11.08-.12-.02-.25-.02-.37.01.01-.16-.02-.33-.1-.48-.68-1.34-1.8-2.46-3.13-3.15-.26-.14-.57-.15-.83,0-.23.13-.43.43-.41.7-.12-.18-.25-.35-.41-.49-.08-.07-.16-.11-.25-.15-.11-.2-.28-.35-.5-.4-.45-.1-.87.13-1.01.57-.05.15-.08.31-.11.47-.04.05-.08.09-.11.15-.19.45-.31.93-.25,1.42.03.24.08.48.15.71-.15-.06-.29-.13-.37-.26-.63-.87-1.83-.14-1.42.83.14.34.32.66.5.97-.45-.22-.89-.43-1.34-.65,0-.14-.03-.28-.11-.39-.81-1.19-1.62-2.38-2.42-3.56-.25-.37-.72-.53-1.13-.3-.36.21-.55.76-.3,1.13.4.58.8,1.17,1.19,1.75-.42-.2-.82-.42-1.17-.7-.32-.25-.73-.34-1.08-.06-.3.24-.44.71-.21,1.06.22.33.46.63.71.93-.23-.06-.46-.09-.71-.09-.17,0-.33.02-.5.05-.09-.03-.18-.07-.27-.1-.21-.25-.5-.35-.8-.3-.05-.02-.29-.12-.17-.07-.1-.04-.2-.09-.29-.13-.17-.08-.34-.16-.5-.25-.03-.01-.05-.03-.08-.05.56-.08,1.11-.19,1.64-.36.69-.22.79-1.12.2-1.5-.89-.58-2-.86-3.05-.73-.43.05-.84.34-.82.82,0,.07.02.14.04.2-.08,0-.15,0-.22,0-.32-.03-.64.23-.75.51-.09.22-.07.43,0,.62-.12.02-.24.04-.36.07-.14-.04-.29-.05-.44-.02-.5.07-1,.11-1.51.15.05-.09.09-.19.1-.29.04-.36-.18-.84-.59-.9-.73-.11-1.45-.21-2.18-.32-.08-.27-.27-.5-.55-.56-.74-.16-1.44.23-1.68.96-.12.39.14.95.57,1.01.29.04.58.08.86.13-.11.13-.2.27-.29.42-.1.18-.12.36-.1.53-.34.08-.66.22-.95.4,0-.02,0-.04,0-.06-.09-.34-.43-.61-.79-.6-.69.01-1.38.03-2.08.04-.33,0-.66.01-.98.02-.07,0-.14,0-.22,0-.03-.05-.05-.1-.09-.14-.57-.61-1.55-.15-1.65.61-.04.29.06.56.24.77-.28.09-.56.2-.84.3-.19-.13-.43-.19-.65-.1-.97.37-1.85.86-2.67,1.48-.19-.15-.43-.21-.69-.12-.65.22-1.23.59-1.67,1.12-.22.26-.29.61-.17.91-.51.48-1.07.91-1.69,1.26-.39.22-.52.74-.3,1.13.25.42.72.47,1.13.3.02,0,.03-.01.05-.02,0,.3.21.55.47.68-1.35.69-2.48,1.26-3.28,1.58-.35.14-.63.26-.87.37-.03-.03-.06-.07-.09-.1.44-.47.82-1,1.09-1.6.14-.31.15-.63-.06-.91-.22-.28-.53-.34-.86-.29-1.52.22-2.99.73-4.33,1.47-.33.18-.46.58-.38.93.11.51.65.91,1.18.88-.02.05-.04.08-.06.13-.03.11-.03.23,0,.35-.94.59-1.92,1.12-2.95,1.57-.63.03-1.26.29-1.72.74-.44.44-.18,1.2.34,1.38-.04.09-.07.18-.1.27-.02,0-.03-.02-.05-.03-.47-.17-.91-.01-1.34.2-.82.4-1.64.82-2.45,1.23-.4.2-.51.76-.3,1.13.24.41.72.49,1.13.3.27-.13.53-.26.8-.39.02,0,.02-.02.04-.03.21-.1.42-.21.63-.31.07-.04.15-.07.22-.11-.12.22-.23.44-.35.66-.38.68-.78,1.34-1.21,1.98-.32.48-.03.95.39,1.13,0,.02-.01.03-.02.05-.43.53-.7,1.19-.7,1.92,0,.18.02.35.05.53-.17.02-.33.08-.44.21-.35.42-.65.86-.92,1.32,0,0,0-.01,0-.02,0-.01,0-.03,0-.05,0,.04-.01.05,0,0,0-.03,0-.05,0-.07,0,.02,0,.05,0,.07,0,0,0,0,0-.02.02-.08.04-.15.06-.22,0,.01-.01.02-.02.03,0,0,.01-.02.02-.03,0,0,0,0,0,0,.03-.09.03-.06,0-.01,0-.02.02-.04.02-.06.04-.08.09-.16.15-.23.24-.36.08-.92-.3-1.13-.43-.23-.85-.08-1.13.3-.08.12-.16.23-.24.34-.02.02-.08.1-.09.12-.05.06-.1.12-.15.18-.2.23-.42.44-.65.64-.04.03-.08.07-.12.1-.12-.03-.25-.04-.39,0-.64.13-1.17.67-1.31,1.3-.07.33.02.66.29.86.28.22.6.21.91.06.53-.24,1.02-.56,1.47-.92.12.34.3.65.52.93-.34,1.22-.43,2.5-.25,3.8.05.35.38.56.73.59.03.57.2,1.11.5,1.56-.18.01-.34.08-.46.23-1.13,1.42-1.36,3.33-.56,4.97.27.55,1.15.53,1.42,0,0,0,0,0,0,0,.12.7.47,1.32.99,1.77-.25.76-.49,1.52-.74,2.27-.03-.08-.06-.17-.09-.25-.19-.55-.7-.71-1.21-.49-1.34.57-1.8,2.3-1.16,3.54.42.81,1.53.3,1.52-.45.05.16.11.32.16.48.24.69,1.12.77,1.48.21.17,0,.33-.06.47-.18.05.21.13.4.22.59-.23.09-.43.28-.49.53-.16.68-.26,1.37-.32,2.06-.02.32-.04.65-.03.97,0,.33,0,.69.1,1,.09.27.25.49.45.65.05.83.32,1.64.76,2.33,0,.14-.02.27-.02.41-.32-.08-.65-.06-.97.13-.55.31-.75,1-.74,1.59.02,1.33.58,2.75,1.14,3.94.07.15.16.3.23.45-.04.07-.09.14-.12.22-.42,1-.12,2.15.32,3.09.48,1.02,1.32,1.87,2.3,2.41,0,0,.01,0,.02,0-.04.29-.03.61.05.93.03.12.06.23.1.33-.18.41-.22.9-.09,1.37.26.92.95,1.61,1.59,2.28.19.21.39.41.58.62.85,2.09,2,4.59,3.09,6.87.02.63.12,1.26.3,1.86.19.64.54,1.46,1.04,2.05.23,1.64.91,3.19,1.96,4.5.09.12.23.18.37.21l.26,1.3c-.66,11.19-9.21,28.96-10.2,31.26-.99,2.3-9.54,22.05-12.51,34.56-2.96,12.51-1.97,24.02-1.97,24.02h96.47c-.62-7.24-16.83-23.04-16.83-23.04,0,0-9.21-9.54-11.52-16.46-2.3-6.91-8.23-10.86-8.89-11.52-.66-.66-1.97-3.62-2.03-5.11-.06-1.49,3.02-12.99,7.3-16.61,4.28-3.62,1.97-2.96,13.16-2.63,11.19.33,12.18-3.29,13.16-4.94.99-1.65.33-4.28.66-5.59.33-1.32,1.88-1.97,2.3-1.97s1.21.39,1.97-1.32c.99-2.63-1.65-4.28-1.65-4.28,0,0,1.97-.66,2.96-1.97,1.32-2.3-.33-3.62-.99-4.28-.66-.66,0-2.3,0-3.29s3.62-2.63,3.62-2.63ZM101.31,13.14s0,0-.01.01c0,0-.01,0-.02,0,.01,0,.02,0,.04-.01Zm-8.14,46.07c.02.22.04.43.06.65-.06-.25-.12-.5-.14-.75.03.03.06.07.08.1Zm15.21-47.94s0,0,0,0c0,0,0,0,0,0,0,0,0,0,0,0Zm39.11-4.26s0,0,0,0c0,0,0,0-.01,0,0,0,0,0-.02,0,0,0,0,0,0,0,0,0,.02,0,.03,0Zm-.83-2.16c0,.06,0,.12,0,.18-.09-.05-.18-.11-.25-.17.09,0,.17,0,.25-.01Z"/><path class="cls-1" d="m123.11,84.24c-.91-3.35-3.35-4.57-5.18-7.92-1.83-3.35-.3-5.18-.3-5.18,3.05-2.44.91-4.57.91-4.57l-1.52-6.1s-1.52-6.09-2.44-10.67c-.23-1.16-.62-2.21-1.07-3.15,1.59-2.06,1.33-5,.49-7.38-.15-.42-.83-.24-.68.19.73,2.07,1.04,4.61-.18,6.48-.06-.1-.11-.2-.17-.29.93-2.6.33-5.47-.86-7.97-.44-1.27-1.19-2.42-2.2-3.33-.34-.3-.83.19-.5.5.55.5,1.01,1.07,1.38,1.68-.01.07,0,.14.04.22.2.34.38.69.56,1.04.62,1.73.59,3.66-.16,5.38-.14-.17-.28-.32-.39-.45.96-2.57.42-5.59-1.45-7.64-.23-.25-.56-.03-.59.23-.26-1.66-.7-3.31-1.68-4.68-1.62-2.26-4.52-3.02-7.09-3.62-4.62-1.07-9.37-1.17-14.09-1.45-2.41-.7-3.97-1.05-3.97-1.05-10.06-2.13-16.36,0-16.36,0-6.31,0-8.32,4.26-9.54,5.48-1.22,1.22-3.35,1.52-3.35,1.52.3-2.13-2.74-1.83-2.74-1.83,1.52-3.05-1.22-1.52-1.22-1.52-.3-1.83-3.05-1.83-3.05-1.83-.3-1.52-1.52-1.83-1.52-1.83,0-2.15-2.74-2.13-2.74-2.13,0,0-4.27-1.22-5.18-1.22s-4.57-.3-4.57-.3c0,0-8.53-3.96-11.89,5.18-3.35,9.14,5.18,9.45,5.8,10.36.62.91,1.82.61,2.74.61.24,0,.41,0,.56.01-.21.65-.19,1.49-.16,2.01.07,1.62.44,3.22,1.16,4.68.13.26.28.5.43.75-.43.26-.84.55-1.24.87-1.46,1.18-2.63,2.73-3.37,4.46-.65,1.5-1.21,3.41-.19,4.87.33.48,1.13.02.79-.46-1.1-1.59.06-3.96.94-5.4.9-1.47,2.14-2.66,3.59-3.57.38.51.81.97,1.29,1.39-.7.79-1.27,1.66-1.64,2.68-.46,1.27-.63,2.64-.76,3.98-.12,1.25-.27,2.55.26,3.71-.18.43-.34.89-.25,1.36.08.47.4.8.76,1.08.33.26.68.51,1.02.75.01.22.03.43.05.65-.15.53-.31,1.15-.5,2.1-.41,2.05,2.22,2.44,4.26,2.39-.01.78.09,1.57.34,2.32.25.76.62,1.64,1.32,2.09.35.22.77.33,1.19.4.01.01.03.03.04.04-.97,1.79-1.96,3.58-2.74,5.45-.92,2.19-1.02,4.31-.11,6.52.77,1.87,1.74,4.12,3.66,5.04.95.46,1.98.62,3.03.65-.58,1.02-.94,2.18-.95,3.32,0,1.12.61,1.85,1,2.84.49,1.23.45,2.56.01,3.79-.2.56.69.8.88.24.35-1,.46-2.03.3-3.08-.18-1.14-.85-1.94-1.18-3-.42-1.36.13-2.89,1.02-4.14.57-.03,1.14-.08,1.7-.15.58-.06.58-.98,0-.91-.29.03-.59.06-.88.09.38-.39.78-.72,1.18-.97.27-.17.53-.32.8-.47.01.12.03.24.05.39.1.68.26,1.14.42,1.52-.06.24-.13.48-.23.71-.3.65-.77,1.12-1.24,1.64-.79.87-1.23,1.93-1.19,3.11.04,1.07.45,2.14,1.2,2.92.41.42.9.72,1.42.94.04.26.09.51.16.76.24.8.72,1.49,1.58,1.68,0,0,.02,0,.02,0-.09.19-.18.39-.29.57-1.13,1.99-3.01,3.49-5.19,4.16-.65.2-.37,1.22.28,1.02,2.43-.76,4.56-2.42,5.82-4.65.19-.34.36-.69.51-1.05.4-.02.8-.04,1.2.03.04,0,.07,0,.1,0,.3,1.45.3,2.48.3,2.48-2.74,19.2-8.53,22.55-8.53,22.55,0,0-3.05.91-3.96,1.52-.91.61-1.52.91-1.83,3.66s-7.92,8.84-7.92,8.84c-14.02,14.93-19.32,42.97-19.32,42.97h89.73l-1.23-4.88c.61-8.53-9.75-22.86-9.75-22.86-.91-6.4-3.35-7.01-3.66-7.62-.3-.61-1.22-2.13-.91-4.88.3-2.74,3.96-10.67,6.7-13.41,2.74-2.74,3.66-8.23,3.66-8.23,0,0,1.08-.39,1.89.38s.81.77,1.77,1.76c.67.5,1.22.21,2.13.82.91.61,1.93.17,2.13.09,1.21-.47,2.82,1,3.09,1.32s.28.74.87,1.12c1.93,1.22,3.35.91,3.35.91,0,0,1.89-.15,3.66-.61,2.26-.59,4.36-4.85,4.57-5.49s.61-1.83.6-5.69c0-3.86-3.34-5.59-3.34-5.59,0-1.22.61-3.35,1.52-3.96.91-.61,0-3.05,0-3.05,2.44-1.52,1.82-2.53,1.82-2.53,0,0,1.23.09,2.14-1.13.91-1.22-.61-3.96-.61-3.96.3-1.52.3-.91.3-.91,0,0,4.27.3,5.5-3.05,1.23-3.35-2.15-5.49-2.15-5.49Zm-78.37-1.28c-.45,0-.9-.03-1.35-.08-.23-.03-.49-.04-.71-.12-.03,0-.09-.05-.16-.1-.22-.18-.41-.4-.57-.64-.05-.07-.09-.15-.12-.21.01,0-.02-.23-.02-.24,0-.01,0-.03,0-.04.44-.04.88-.11,1.31-.21.67.59,1.25,1.14,1.62,1.64Zm-2.95-2.78c.22.19.44.38.65.56-.22.04-.43.05-.65.07,0-.21,0-.42,0-.63Zm-.9-.8c-.02.49-.02.97-.01,1.46-1.27-.03-2.52-.33-3.65-.91-.18-1.49.21-3,.92-4.32.28,1.3,1.43,2.58,2.74,3.77Zm-1.27-12.9c-.11-.1-.27-.15-.42-.11-.01,0-.03,0-.04,0-.14-.24-.25-.49-.35-.74-.09-.22-.16-.44-.24-.66.65.13,1.2.58,1.05,1.5Zm-1.14-28.4c-.44.99-1.04,1.83-1.77,2.55-.33-1.09-.54-2.22-.61-3.35.42,1.1,1.67.98,2.39.81Zm-1,26.97s.09-.03.13-.04c.11.35.24.7.38,1.04.05.13.11.25.17.38-.39-.07-.76-.24-1.05-.52-.21-.2-.36-.44-.47-.7.38-.05.68-.11.84-.16Zm-.44-23.46c.35-.32.68-.66.98-1.03-.16.35-.34.7-.53,1.02-.1.17-.19.32-.27.45-.05-.12-.1-.24-.14-.36-.01-.03-.02-.06-.03-.09Zm-5.93,2.41c-.64-1.05-1.07-2.22-1.29-3.43-.04-.24-.29-2.41-.1-3.25.12.08.27.17.45.29.91.61,2.83-1.22,2.83-1.22.73,1.2,1.58,1.05,2.18.69.08,1.43.34,2.84.79,4.19-.52.42-1.09.79-1.7,1.12-1.04.56-2.12,1.04-3.16,1.61Zm.33,14.98c-.33-.25-.82-.52-.79-1,.01-.2.07-.4.15-.6.14-.1.22-.25.19-.43.04-.08.08-.16.11-.24.1-.21.21-.4.32-.6,0,.96,0,1.92.05,2.88-.01,0-.02-.01-.03-.02Zm1.17-2.77c-.1.62-.18,1.13-.27,1.57-.02-1.06-.01-2.11,0-3.17.2-.27.41-.53.63-.79-.09.6-.2,1.36-.36,2.39Zm.56-3.94c-.28.28-.56.56-.81.86,0-.89.02-1.8.34-2.6.12-.29.28-.56.47-.8.03.19.05.41.05.69,0,.81,0,1.26-.05,1.85Zm-.11-3.72c-.29.25-.56.52-.78.84-.7,1.02-.79,2.23-.82,3.43-.01.5-.02,1-.03,1.5-.31.46-.6.94-.85,1.43-.14-.89,0-1.85.1-2.72.13-1.26.31-2.54.78-3.72.33-.82.83-1.5,1.4-2.13.2.15.42.28.63.41-.25.42-.38.72-.43.95Zm1.38-2.39c-.18.25-.33.47-.47.68-.17-.1-.33-.2-.49-.31.11-.11.22-.22.33-.33.6-.58,1.2-1.16,1.8-1.73-.3.44-.68.98-1.18,1.69Zm-1.68-.2c-.41-.36-.8-.76-1.13-1.2,1.57-.85,3.25-1.49,4.69-2.55.04.09.06.18.1.27-.04.02-.09.04-.13.08-1.18,1.13-2.37,2.25-3.53,3.39Zm4.92,23.08c-.08-.11-.16-.23-.23-.34-.44-.69-.78-1.43-1.03-2.2.02.02.04.05.06.07.61.58,1.45.87,2.29.82.08.09.16.18.25.26.11.09.22.17.33.24-.04.17-.08.35-.12.53-.05.04-.09.09-.13.15-.12.23-.24.45-.36.68-.02,0-.04,0-.06,0-.33-.04-.68-.07-1-.21Zm-.93,6.04c.59-1.22,1.22-2.41,1.85-3.61-.18.94-.33,1.92-.44,2.85-1.05,1.52-1.71,3.33-1.64,5.18-.29-.19-.57-.4-.83-.63.05-1.29.46-2.54,1.07-3.79Zm6.6,11.08c-.23.23-.45.49-.65.76-1.1.03-2.2-.08-3.18-.53-1.81-.85-2.82-3.28-3.46-5.06-.18-.51-.29-1.01-.34-1.51.29.21.58.4.89.58.02.12.03.24.06.36.49,2.14,2.13,4.02,4.29,4.54.44.11.63-.57.19-.68-1.85-.45-3.23-2.01-3.73-3.82,1.1.49,2.29.75,3.5.77,0,.05,0,.1,0,.14.03.65.54,1.25,1.02,1.65.32.27.63.33,1.05.39.54.08,1.08.13,1.62.14.28,0,.56,0,.83-.01.33.4.42.47.46.59-.91.48-1.82.95-2.55,1.69Zm3.01,9.43c-.32-.18-.62-.41-.87-.71-.64-.77-.91-1.86-.75-2.85.2-1.22,1.13-1.85,1.81-2.79.17-.23.31-.48.44-.74.1.32.15.7.1,1.25-.08.98.15,1.7.61,2.62-.11.03-.2.11-.28.21-.65.87-1.01,1.93-1.07,3.01Zm1.77-2.42c.25.47.55,1,.88,1.63.03.54,0,1.08-.06,1.62-.03-.02-.06-.04-.1-.04-.52-.11-1.06-.22-1.57-.39-.03-1,.28-1.99.86-2.81Zm-.25,4.77c-.25-.22-.36-.57-.45-.88,0-.03-.01-.06-.02-.08.39.11.79.2,1.19.28.07.02.14.01.2,0-.07.32-.16.64-.27.95-.24-.03-.47-.1-.65-.26Zm1.76.28c.14-.45.23-.92.31-1.39.18.48.33.95.45,1.4-.25-.02-.5-.02-.76-.01ZM102.45,28.71c.21.44.39.91.53,1.38-.3-.27-.6-.54-.92-.79-.52-.41-1.06-.79-1.61-1.14.67.15,1.34.33,1.99.55Zm.76,4.18c-4.25-2.66-9.19-4.67-13.24-6.06,2.78.16,5.54.38,8.28.89,1.83.91,3.56,2.12,5,3.6.06.52.05,1.05-.03,1.57Zm1.62,1.07c-.32-.23-.66-.45-.99-.67.08-.38.13-.77.14-1.16.6.72,1.13,1.51,1.57,2.34-.23-.17-.46-.34-.71-.51Zm1.86,1.38c-.64-1.59-1.61-3.06-2.79-4.34-.1-.66-.28-1.31-.53-1.94,1.02.44,1.94,1.01,2.62,1.82,1.26,1.49,1.66,3.52,1.9,5.45-.36-.31-.76-.64-1.19-.99Zm2.37,2.09c-.07-.65-.14-1.31-.24-1.97.02.04.04.08.07.11.95,1.04,1.51,2.38,1.67,3.76-.3-.54-.78-1.17-1.49-1.91Zm3.43,7.42c-.26-.4-.53-.77-.77-1.09.43-.87.72-1.81.81-2.78.27,1.29.3,2.6-.04,3.87Z"/><path class="cls-1" d="m158.83,130.92c-.57.28-1.13,4.25-1.13,4.25-2.26,1.7-3.68,5.09-3.68,5.09-2.55,3.11-2.26,7.64-4.25,14.43-1.98,6.79-8.43,26.32-8.43,26.32h79.22l-.6-3.11c-4.53-33.11-21.51-39.62-21.51-39.62-1.42-4.25-5.94-9.91-5.94-9.91,0,0,.85-6.23,1.98-7.08,1.13-.85,4.53-2.83,4.53-2.83,0,0,6.23.85,10.47-1.42,4.25-2.26,3.4-7.08,3.4-8.21s.28-1.7,1.13-3.11c.85-1.42-.6-3.11-.6-3.11h.89s1.7-.85,1.13-2.55c-.57-1.7-.02-3.96-.02-3.96,3.38-.85,3.13-3.4,3.13-3.4,0-2.83-4.81-6.23-6.23-9.34-1.42-3.11,1.7-7.36.85-8.49-.85-1.13-.85-5.94-.85-5.94,1.76-7.92-3.82-15.26-9.71-20.13,2.23.79,4.22,2.23,5.75,4.04.41.48,1.1-.21.69-.69-2.13-2.53-5.11-4.32-8.37-4.85-.22-.16-.44-.32-.66-.47,2.37-.17,4.77.04,6.66,1.55.49.39,1.18-.3.69-.69-2.48-1.98-5.59-2.04-8.6-1.7-2.22-1.44-4.25-2.45-5.68-2.89-5.8-1.81-22.67-2.46-31.44,1.5-2.97,1.34-5.06,2.87-6.53,4.32.63-1.64,1.75-3.1,3.27-4.06.53-.34.04-1.18-.49-.85-2.28,1.45-3.79,3.9-4.22,6.53-.04.06-.08.11-.12.16.03-.21.05-.43.09-.64.37-2.16,1.08-4.3,2.81-5.75.48-.4-.21-1.09-.69-.69-1.91,1.59-2.71,4-3.1,6.38-.14.88-.24,1.76-.32,2.65-.03.06-.06.13-.09.19-.47-1.75-.51-3.62-.04-5.41.16-.61-.78-.87-.94-.26-.61,2.35-.46,4.86.41,7.11l-4.17,3.34c-6.23,5.09-5.38,21.79-2.26,31.7,3.11,9.91,18.68,18.4,19.24,20.94.57,2.55,0,6.23,0,6.23,0,0-1.13.57-3.4.85-2.26.28-3.11,1.98-2.83,3.11.28,1.13.85,5.09.81,6.27-.04,1.18-.81,3.35-.81,3.35,0,0,1.13.57.57.85Z"/><path class="cls-4" d="m179.63,75.59c2.63-3.29-.66-5.59-.66-5.59l-5.18-7.65s-2.39-3.21-1.4-8.47c.99-5.27-1.32-11.85-1.32-11.85,0,0,.11-.29.28-.77.05.16.12.31.19.46.11.23.36.36.6.39.27.04.48-.05.69-.23,1.08-.89,1.85-2.17,2.15-3.54.09-.42-.13-.91-.57-1.01-.16-.04-.33-.01-.48.04.21-.38.35-.81.38-1.28.11-.07.21-.14.31-.23,0,0,0,0,0,0,.21.34.48.68.89.81.5.15,1-.11,1.27-.52.18-.28.26-.63.36-.95.1-.33.2-.67.31-1,.13-.41-.15-.92-.57-1.01-.37-.08-.72.07-.91.38.06-.39.05-.77,0-1.17-.03-.22-.22-.4-.42-.5,0-.01.02-.02.03-.03.59-1.14.86-2.42.73-3.7-.05-.44-.34-.82-.82-.82-.14,0-.28.05-.41.12-.05-.47-.12-.94-.21-1.41,0,0,0,0,0,0,.18-.15.31-.37.3-.61-.02-.45-.36-.82-.82-.82-.64,0-1.21.27-1.65.68-.04-.37-.13-.72-.29-1.04.27-.07.55-.27.61-.57.17-.95.21-1.91.11-2.85,0-.21-.02-.42-.08-.62,0-.01,0-.03-.01-.04-.13-.79-.36-1.57-.68-2.32-.19-.45-.42-.92-.91-1.11-.4-.16-.76-.06-1.06.15-.18-.17-.38-.32-.6-.44l.29-.84c.16-.1.28-.25.32-.44.08-.4.16-.8.24-1.2.21-1.04-1.24-1.44-1.59-.44-.19.54-.37,1.09-.56,1.63-.15-.45-.25-.92-.28-1.39-.05-.44-.34-.82-.82-.82-.43,0-.85.38-.82.82.03.25.06.51.08.76-.02,0-.04-.02-.06-.02-.2-.29-.45-.54-.77-.73-.02-.01-.04-.01-.06-.02.1-.31.17-.63.17-.97,0-.01,0-.03,0-.04.32.04.69-.09.83-.39.25-.56.2-1.13-.07-1.6.04,0,.08,0,.11-.02.11-.03.2-.07.28-.15.19-.15.35-.39.32-.65-.04-.36-.07-.73-.16-1.08-.08-.33-.21-.68-.41-.96-.22-.3-.48-.57-.82-.72-.33-.14-.68-.25-1.04-.2-.26.03-.49.08-.72.21-.1.06-.18.12-.25.19-.26-.2-.59-.27-.92-.2,0,0,0,0,0,0,0,0,0,0,0,0-.04,0-.07,0-.11.02-.03,0-.05.03-.08.04-.03.01-.06.03-.08.04-.39.19-.68.55-.96.88,0,0,0,0,0,0-.04,0-.08,0-.12,0-.41.08-.69.34-1.01.59-.29.23-.59.46-.88.69-.3.24-.62.45-.83.78,0,0,0,.02-.01.02-.31-.42-.66-.81-1.05-1.15.11-.31.11-.65,0-.97-.03-.08-.06-.15-.1-.23.22.04.44.08.66.12.15.03.3.02.44-.06.12-.07.23-.2.26-.34.06-.28-.08-.64-.4-.7-.59-.11-1.18-.22-1.77-.33,0,0-.01,0-.02,0,.15-.14.25-.34.24-.57-.02-.41-.36-.86-.82-.82-.42.04-.78.21-1,.58-.18.32-.18.67-.13,1.02.04.25.13.5.27.71.07.11.16.21.25.31-.94-.28-1.88-.56-2.83-.84-.03,0-.06,0-.08-.01-.42-.37-.93-.63-1.5-.72,0-.14-.01-.29-.09-.42-.24-.41-.48-.83-.72-1.24.32-.12.62-.3.88-.53.33-.28.31-.88,0-1.16-.34-.31-.79-.3-1.14-.02,0,0,0,0,0,0-.04.02-.07.05-.11.07-.04.02-.08.04-.12.06-.12.04-.24.07-.36.1-.02,0-.04,0-.06,0-.22-.19-.52-.26-.79-.17,0,0-.01,0-.02,0-.01,0-.04-.02-.06-.04-.02-.02-.05-.04-.06-.05-.32-.29-.85-.34-1.16,0-.29.32-.34.85,0,1.16.03.03.07.05.11.08-.12-.02-.25-.02-.37.01.01-.16-.02-.33-.1-.48-.68-1.34-1.8-2.46-3.13-3.15-.26-.14-.57-.15-.83,0-.23.13-.43.43-.41.7-.12-.18-.25-.35-.41-.49-.08-.07-.16-.11-.25-.15-.11-.2-.28-.35-.5-.4-.45-.1-.87.13-1.01.57-.05.15-.08.31-.11.47-.04.05-.08.09-.11.15-.19.45-.31.93-.25,1.42.03.24.08.48.15.71-.15-.06-.29-.13-.37-.26-.63-.87-1.83-.14-1.42.83.14.34.32.66.5.97-.45-.22-.89-.43-1.34-.65,0-.14-.03-.28-.11-.39-.81-1.19-1.62-2.38-2.42-3.56-.25-.37-.72-.53-1.13-.3-.36.21-.55.76-.3,1.13.4.58.8,1.17,1.19,1.75-.42-.2-.82-.42-1.17-.7-.32-.25-.73-.34-1.08-.06-.3.24-.44.71-.21,1.06.22.33.46.63.71.93-.23-.06-.46-.09-.71-.09-.17,0-.33.02-.5.05-.09-.03-.18-.07-.27-.1-.21-.25-.5-.35-.8-.3-.05-.02-.29-.12-.17-.07-.1-.04-.2-.09-.29-.13-.17-.08-.34-.16-.5-.25-.03-.01-.05-.03-.08-.05.56-.08,1.11-.19,1.64-.36.69-.22.79-1.12.2-1.5-.89-.58-2-.86-3.05-.73-.43.05-.84.34-.82.82,0,.07.02.14.04.2-.08,0-.15,0-.22,0-.32-.03-.64.23-.75.51-.09.22-.07.43,0,.62-.12.02-.24.04-.36.07-.14-.04-.29-.05-.44-.02-.5.07-1,.11-1.51.15.05-.09.09-.19.1-.29.04-.36-.18-.84-.59-.9-.73-.11-1.45-.21-2.18-.32-.08-.27-.27-.5-.55-.56-.74-.16-1.44.23-1.68.96-.12.39.14.95.57,1.01.29.04.58.08.86.13-.11.13-.2.27-.29.42-.1.18-.12.36-.1.53-.34.08-.66.22-.95.4,0-.02,0-.04,0-.06-.09-.34-.43-.61-.79-.6-.69.01-1.38.03-2.08.04-.33,0-.66.01-.98.02-.07,0-.14,0-.22,0-.03-.05-.05-.1-.09-.14-.57-.61-1.55-.15-1.65.61-.04.29.06.56.24.77-.28.09-.56.2-.84.3-.19-.13-.43-.19-.65-.1-.97.37-1.85.86-2.67,1.48-.19-.15-.43-.21-.69-.12-.65.22-1.23.59-1.67,1.12-.22.26-.29.61-.17.91-.51.48-1.07.91-1.69,1.26-.39.22-.52.74-.3,1.13.25.42.72.47,1.13.3.02,0,.03-.01.05-.02,0,.3.21.55.47.68-1.35.69-2.48,1.26-3.28,1.58-.35.14-.63.26-.87.37-.03-.03-.06-.07-.09-.1.44-.47.82-1,1.09-1.6.14-.31.15-.63-.06-.91-.22-.28-.53-.34-.86-.29-1.52.22-2.99.73-4.33,1.47-.33.18-.46.58-.38.93.11.51.65.91,1.18.88-.02.05-.04.08-.06.13-.03.11-.03.23,0,.35-.94.59-1.92,1.12-2.95,1.57-.63.03-1.26.29-1.72.74-.44.44-.18,1.2.34,1.38-.04.09-.07.18-.1.27-.02,0-.03-.02-.05-.03-.47-.17-.91-.01-1.34.2-.82.4-1.64.82-2.45,1.23-.4.2-.51.76-.3,1.13.24.41.72.49,1.13.3.27-.13.53-.26.8-.39.02,0,.02-.02.04-.03.21-.1.42-.21.63-.31.07-.04.15-.07.22-.11-.12.22-.23.44-.35.66-.38.68-.78,1.34-1.21,1.98-.32.48-.03.95.39,1.13,0,.02-.01.03-.02.05-.43.53-.7,1.19-.7,1.92,0,.18.02.35.05.53-.17.02-.33.08-.44.21-.35.42-.65.86-.92,1.32,0,0,0-.01,0-.02,0-.01,0-.03,0-.05,0,.04-.01.05,0,0,0-.03,0-.05,0-.07,0,.02,0,.05,0,.07,0,0,0,0,0-.02.02-.08.04-.15.06-.22,0,.01-.01.02-.02.03,0,0,.01-.02.02-.03,0,0,0,0,0,0,.03-.09.03-.06,0-.01,0-.02.02-.04.02-.06.04-.08.09-.16.15-.23.24-.36.08-.92-.3-1.13-.43-.23-.85-.08-1.13.3-.08.12-.16.23-.24.34-.02.02-.08.1-.09.12-.05.06-.1.12-.15.18-.2.23-.42.44-.65.64-.04.03-.08.07-.12.1-.12-.03-.25-.04-.39,0-.64.13-1.17.67-1.31,1.3-.07.33.02.66.29.86.28.22.6.21.91.06.53-.24,1.02-.56,1.47-.92.12.34.3.65.52.93-.34,1.22-.43,2.5-.25,3.8.05.35.38.56.73.59.03.57.2,1.11.5,1.56-.18.01-.34.08-.46.23-1.13,1.42-1.36,3.33-.56,4.97.27.55,1.15.53,1.42,0,0,0,0,0,0,0,.12.7.47,1.32.99,1.77-.25.76-.49,1.52-.74,2.27-.03-.08-.06-.17-.09-.25-.19-.55-.7-.71-1.21-.49-1.34.57-1.8,2.3-1.16,3.54.42.81,1.53.3,1.52-.45.05.16.11.32.16.48.24.69,1.12.77,1.48.21.17,0,.33-.06.47-.18.05.21.13.4.22.59-.23.09-.43.28-.49.53-.16.68-.26,1.37-.32,2.06-.02.32-.04.65-.03.97,0,.33,0,.69.1,1,.09.27.25.49.45.65.05.83.32,1.64.76,2.33,0,.14-.02.27-.02.41-.32-.08-.65-.06-.97.13-.55.31-.75,1-.74,1.59.02,1.33.58,2.75,1.14,3.94.07.15.16.3.23.45-.04.07-.09.14-.12.22-.42,1-.12,2.15.32,3.09.48,1.02,1.32,1.87,2.3,2.41,0,0,.01,0,.02,0-.04.29-.03.61.05.93.03.12.06.23.1.33-.18.41-.22.9-.09,1.37.26.92.95,1.61,1.59,2.28.19.21.39.41.58.62.85,2.09,2,4.59,3.09,6.87.02.63.12,1.26.3,1.86.19.64.54,1.46,1.04,2.05.23,1.64.91,3.19,1.96,4.5.09.12.23.18.37.21l.26,1.3c-.66,11.19-9.21,28.96-10.2,31.26-.99,2.3-9.54,22.05-12.51,34.56-2.96,12.51-1.97,24.02-1.97,24.02h96.47c-.62-7.24-16.83-23.04-16.83-23.04,0,0-9.21-9.54-11.52-16.46-2.3-6.91-8.23-10.86-8.89-11.52-.66-.66-1.97-3.62-2.03-5.11-.06-1.49,3.02-12.99,7.3-16.61,4.28-3.62,1.97-2.96,13.16-2.63,11.19.33,12.18-3.29,13.16-4.94.99-1.65.33-4.28.66-5.59.33-1.32,1.88-1.97,2.3-1.97s1.21.39,1.97-1.32c.99-2.63-1.65-4.28-1.65-4.28,0,0,1.97-.66,2.96-1.97,1.32-2.3-.33-3.62-.99-4.28-.66-.66,0-2.3,0-3.29s3.62-2.63,3.62-2.63ZM101.31,13.14s0,0-.01.01c0,0-.01,0-.02,0,.01,0,.02,0,.04-.01Zm-8.14,46.07c.02.22.04.43.06.65-.06-.25-.12-.5-.14-.75.03.03.06.07.08.1Zm15.21-47.94s0,0,0,0c0,0,0,0,0,0,0,0,0,0,0,0Zm39.11-4.26s0,0,0,0c0,0,0,0-.01,0,0,0,0,0-.02,0,0,0,0,0,0,0,0,0,.02,0,.03,0Zm-.83-2.16c0,.06,0,.12,0,.18-.09-.05-.18-.11-.25-.17.09,0,.17,0,.25-.01Z"/><path class="cls-5" d="m123.11,84.24c-.91-3.35-3.35-4.57-5.18-7.92-1.83-3.35-.3-5.18-.3-5.18,3.05-2.44.91-4.57.91-4.57l-1.52-6.1s-1.52-6.09-2.44-10.67c-.23-1.16-.62-2.21-1.07-3.15,1.59-2.06,1.33-5,.49-7.38-.15-.42-.83-.24-.68.19.73,2.07,1.04,4.61-.18,6.48-.06-.1-.11-.2-.17-.29.93-2.6.33-5.47-.86-7.97-.44-1.27-1.19-2.42-2.2-3.33-.34-.3-.83.19-.5.5.55.5,1.01,1.07,1.38,1.68-.01.07,0,.14.04.22.2.34.38.69.56,1.04.62,1.73.59,3.66-.16,5.38-.14-.17-.28-.32-.39-.45.96-2.57.42-5.59-1.45-7.64-.23-.25-.56-.03-.59.23-.26-1.66-.7-3.31-1.68-4.68-1.62-2.26-4.52-3.02-7.09-3.62-4.62-1.07-9.37-1.17-14.09-1.45-2.41-.7-3.97-1.05-3.97-1.05-10.06-2.13-16.36,0-16.36,0-6.31,0-8.32,4.26-9.54,5.48-1.22,1.22-3.35,1.52-3.35,1.52.3-2.13-2.74-1.83-2.74-1.83,1.52-3.05-1.22-1.52-1.22-1.52-.3-1.83-3.05-1.83-3.05-1.83-.3-1.52-1.52-1.83-1.52-1.83,0-2.15-2.74-2.13-2.74-2.13,0,0-4.27-1.22-5.18-1.22s-4.57-.3-4.57-.3c0,0-8.53-3.96-11.89,5.18-3.35,9.14,5.18,9.45,5.8,10.36.62.91,1.82.61,2.74.61.24,0,.41,0,.56.01-.21.65-.19,1.49-.16,2.01.07,1.62.44,3.22,1.16,4.68.13.26.28.5.43.75-.43.26-.84.55-1.24.87-1.46,1.18-2.63,2.73-3.37,4.46-.65,1.5-1.21,3.41-.19,4.87.33.48,1.13.02.79-.46-1.1-1.59.06-3.96.94-5.4.9-1.47,2.14-2.66,3.59-3.57.38.51.81.97,1.29,1.39-.7.79-1.27,1.66-1.64,2.68-.46,1.27-.63,2.64-.76,3.98-.12,1.25-.27,2.55.26,3.71-.18.43-.34.89-.25,1.36.08.47.4.8.76,1.08.33.26.68.51,1.02.75.01.22.03.43.05.65-.15.53-.31,1.15-.5,2.1-.41,2.05,2.22,2.44,4.26,2.39-.01.78.09,1.57.34,2.32.25.76.62,1.64,1.32,2.09.35.22.77.33,1.19.4.01.01.03.03.04.04-.97,1.79-1.96,3.58-2.74,5.45-.92,2.19-1.02,4.31-.11,6.52.77,1.87,1.74,4.12,3.66,5.04.95.46,1.98.62,3.03.65-.58,1.02-.94,2.18-.95,3.32,0,1.12.61,1.85,1,2.84.49,1.23.45,2.56.01,3.79-.2.56.69.8.88.24.35-1,.46-2.03.3-3.08-.18-1.14-.85-1.94-1.18-3-.42-1.36.13-2.89,1.02-4.14.57-.03,1.14-.08,1.7-.15.58-.06.58-.98,0-.91-.29.03-.59.06-.88.09.38-.39.78-.72,1.18-.97.27-.17.53-.32.8-.47.01.12.03.24.05.39.1.68.26,1.14.42,1.52-.06.24-.13.48-.23.71-.3.65-.77,1.12-1.24,1.64-.79.87-1.23,1.93-1.19,3.11.04,1.07.45,2.14,1.2,2.92.41.42.9.72,1.42.94.04.26.09.51.16.76.24.8.72,1.49,1.58,1.68,0,0,.02,0,.02,0-.09.19-.18.39-.29.57-1.13,1.99-3.01,3.49-5.19,4.16-.65.2-.37,1.22.28,1.02,2.43-.76,4.56-2.42,5.82-4.65.19-.34.36-.69.51-1.05.4-.02.8-.04,1.2.03.04,0,.07,0,.1,0,.3,1.45.3,2.48.3,2.48-2.74,19.2-8.53,22.55-8.53,22.55,0,0-3.05.91-3.96,1.52-.91.61-1.52.91-1.83,3.66s-7.92,8.84-7.92,8.84c-14.02,14.93-19.32,42.97-19.32,42.97h89.73l-1.23-4.88c.61-8.53-9.75-22.86-9.75-22.86-.91-6.4-3.35-7.01-3.66-7.62-.3-.61-1.22-2.13-.91-4.88.3-2.74,3.96-10.67,6.7-13.41,2.74-2.74,3.66-8.23,3.66-8.23,0,0,1.08-.39,1.89.38s.81.77,1.77,1.76c.67.5,1.22.21,2.13.82.91.61,1.93.17,2.13.09,1.21-.47,2.82,1,3.09,1.32s.28.74.87,1.12c1.93,1.22,3.35.91,3.35.91,0,0,1.89-.15,3.66-.61,2.26-.59,4.36-4.85,4.57-5.49s.61-1.83.6-5.69c0-3.86-3.34-5.59-3.34-5.59,0-1.22.61-3.35,1.52-3.96.91-.61,0-3.05,0-3.05,2.44-1.52,1.82-2.53,1.82-2.53,0,0,1.23.09,2.14-1.13.91-1.22-.61-3.96-.61-3.96.3-1.52.3-.91.3-.91,0,0,4.27.3,5.5-3.05,1.23-3.35-2.15-5.49-2.15-5.49Zm-78.37-1.28c-.45,0-.9-.03-1.35-.08-.23-.03-.49-.04-.71-.12-.03,0-.09-.05-.16-.1-.22-.18-.41-.4-.57-.64-.05-.07-.09-.15-.12-.21.01,0-.02-.23-.02-.24,0-.01,0-.03,0-.04.44-.04.88-.11,1.31-.21.67.59,1.25,1.14,1.62,1.64Zm-2.95-2.78c.22.19.44.38.65.56-.22.04-.43.05-.65.07,0-.21,0-.42,0-.63Zm-.9-.8c-.02.49-.02.97-.01,1.46-1.27-.03-2.52-.33-3.65-.91-.18-1.49.21-3,.92-4.32.28,1.3,1.43,2.58,2.74,3.77Zm-1.27-12.9c-.11-.1-.27-.15-.42-.11-.01,0-.03,0-.04,0-.14-.24-.25-.49-.35-.74-.09-.22-.16-.44-.24-.66.65.13,1.2.58,1.05,1.5Zm-1.14-28.4c-.44.99-1.04,1.83-1.77,2.55-.33-1.09-.54-2.22-.61-3.35.42,1.1,1.67.98,2.39.81Zm-1,26.97s.09-.03.13-.04c.11.35.24.7.38,1.04.05.13.11.25.17.38-.39-.07-.76-.24-1.05-.52-.21-.2-.36-.44-.47-.7.38-.05.68-.11.84-.16Zm-.44-23.46c.35-.32.68-.66.98-1.03-.16.35-.34.7-.53,1.02-.1.17-.19.32-.27.45-.05-.12-.1-.24-.14-.36-.01-.03-.02-.06-.03-.09Zm-5.93,2.41c-.64-1.05-1.07-2.22-1.29-3.43-.04-.24-.29-2.41-.1-3.25.12.08.27.17.45.29.91.61,2.83-1.22,2.83-1.22.73,1.2,1.58,1.05,2.18.69.08,1.43.34,2.84.79,4.19-.52.42-1.09.79-1.7,1.12-1.04.56-2.12,1.04-3.16,1.61Zm.33,14.98c-.33-.25-.82-.52-.79-1,.01-.2.07-.4.15-.6.14-.1.22-.25.19-.43.04-.08.08-.16.11-.24.1-.21.21-.4.32-.6,0,.96,0,1.92.05,2.88-.01,0-.02-.01-.03-.02Zm1.17-2.77c-.1.62-.18,1.13-.27,1.57-.02-1.06-.01-2.11,0-3.17.2-.27.41-.53.63-.79-.09.6-.2,1.36-.36,2.39Zm.56-3.94c-.28.28-.56.56-.81.86,0-.89.02-1.8.34-2.6.12-.29.28-.56.47-.8.03.19.05.41.05.69,0,.81,0,1.26-.05,1.85Zm-.11-3.72c-.29.25-.56.52-.78.84-.7,1.02-.79,2.23-.82,3.43-.01.5-.02,1-.03,1.5-.31.46-.6.94-.85,1.43-.14-.89,0-1.85.1-2.72.13-1.26.31-2.54.78-3.72.33-.82.83-1.5,1.4-2.13.2.15.42.28.63.41-.25.42-.38.72-.43.95Zm1.38-2.39c-.18.25-.33.47-.47.68-.17-.1-.33-.2-.49-.31.11-.11.22-.22.33-.33.6-.58,1.2-1.16,1.8-1.73-.3.44-.68.98-1.18,1.69Zm-1.68-.2c-.41-.36-.8-.76-1.13-1.2,1.57-.85,3.25-1.49,4.69-2.55.04.09.06.18.1.27-.04.02-.09.04-.13.08-1.18,1.13-2.37,2.25-3.53,3.39Zm4.92,23.08c-.08-.11-.16-.23-.23-.34-.44-.69-.78-1.43-1.03-2.2.02.02.04.05.06.07.61.58,1.45.87,2.29.82.08.09.16.18.25.26.11.09.22.17.33.24-.04.17-.08.35-.12.53-.05.04-.09.09-.13.15-.12.23-.24.45-.36.68-.02,0-.04,0-.06,0-.33-.04-.68-.07-1-.21Zm-.93,6.04c.59-1.22,1.22-2.41,1.85-3.61-.18.94-.33,1.92-.44,2.85-1.05,1.52-1.71,3.33-1.64,5.18-.29-.19-.57-.4-.83-.63.05-1.29.46-2.54,1.07-3.79Zm6.6,11.08c-.23.23-.45.49-.65.76-1.1.03-2.2-.08-3.18-.53-1.81-.85-2.82-3.28-3.46-5.06-.18-.51-.29-1.01-.34-1.51.29.21.58.4.89.58.02.12.03.24.06.36.49,2.14,2.13,4.02,4.29,4.54.44.11.63-.57.19-.68-1.85-.45-3.23-2.01-3.73-3.82,1.1.49,2.29.75,3.5.77,0,.05,0,.1,0,.14.03.65.54,1.25,1.02,1.65.32.27.63.33,1.05.39.54.08,1.08.13,1.62.14.28,0,.56,0,.83-.01.33.4.42.47.46.59-.91.48-1.82.95-2.55,1.69Zm3.01,9.43c-.32-.18-.62-.41-.87-.71-.64-.77-.91-1.86-.75-2.85.2-1.22,1.13-1.85,1.81-2.79.17-.23.31-.48.44-.74.1.32.15.7.1,1.25-.08.98.15,1.7.61,2.62-.11.03-.2.11-.28.21-.65.87-1.01,1.93-1.07,3.01Zm1.77-2.42c.25.47.55,1,.88,1.63.03.54,0,1.08-.06,1.62-.03-.02-.06-.04-.1-.04-.52-.11-1.06-.22-1.57-.39-.03-1,.28-1.99.86-2.81Zm-.25,4.77c-.25-.22-.36-.57-.45-.88,0-.03-.01-.06-.02-.08.39.11.79.2,1.19.28.07.02.14.01.2,0-.07.32-.16.64-.27.95-.24-.03-.47-.1-.65-.26Zm1.76.28c.14-.45.23-.92.31-1.39.18.48.33.95.45,1.4-.25-.02-.5-.02-.76-.01ZM102.45,28.71c.21.44.39.91.53,1.38-.3-.27-.6-.54-.92-.79-.52-.41-1.06-.79-1.61-1.14.67.15,1.34.33,1.99.55Zm.76,4.18c-4.25-2.66-9.19-4.67-13.24-6.06,2.78.16,5.54.38,8.28.89,1.83.91,3.56,2.12,5,3.6.06.52.05,1.05-.03,1.57Zm1.62,1.07c-.32-.23-.66-.45-.99-.67.08-.38.13-.77.14-1.16.6.72,1.13,1.51,1.57,2.34-.23-.17-.46-.34-.71-.51Zm1.86,1.38c-.64-1.59-1.61-3.06-2.79-4.34-.1-.66-.28-1.31-.53-1.94,1.02.44,1.94,1.01,2.62,1.82,1.26,1.49,1.66,3.52,1.9,5.45-.36-.31-.76-.64-1.19-.99Zm2.37,2.09c-.07-.65-.14-1.31-.24-1.97.02.04.04.08.07.11.95,1.04,1.51,2.38,1.67,3.76-.3-.54-.78-1.17-1.49-1.91Zm3.43,7.42c-.26-.4-.53-.77-.77-1.09.43-.87.72-1.81.81-2.78.27,1.29.3,2.6-.04,3.87Z"/><path class="cls-3" d="m158.83,130.92c-.57.28-1.13,4.25-1.13,4.25-2.26,1.7-3.68,5.09-3.68,5.09-2.55,3.11-2.26,7.64-4.25,14.43-1.98,6.79-8.43,26.32-8.43,26.32h79.22l-.6-3.11c-4.53-33.11-21.51-39.62-21.51-39.62-1.42-4.25-5.94-9.91-5.94-9.91,0,0,.85-6.23,1.98-7.08,1.13-.85,4.53-2.83,4.53-2.83,0,0,6.23.85,10.47-1.42,4.25-2.26,3.4-7.08,3.4-8.21s.28-1.7,1.13-3.11c.85-1.42-.6-3.11-.6-3.11h.89s1.7-.85,1.13-2.55c-.57-1.7-.02-3.96-.02-3.96,3.38-.85,3.13-3.4,3.13-3.4,0-2.83-4.81-6.23-6.23-9.34-1.42-3.11,1.7-7.36.85-8.49-.85-1.13-.85-5.94-.85-5.94,1.76-7.92-3.82-15.26-9.71-20.13,2.23.79,4.22,2.23,5.75,4.04.41.48,1.1-.21.69-.69-2.13-2.53-5.11-4.32-8.37-4.85-.22-.16-.44-.32-.66-.47,2.37-.17,4.77.04,6.66,1.55.49.39,1.18-.3.69-.69-2.48-1.98-5.59-2.04-8.6-1.7-2.22-1.44-4.25-2.45-5.68-2.89-5.8-1.81-22.67-2.46-31.44,1.5-2.97,1.34-5.06,2.87-6.53,4.32.63-1.64,1.75-3.1,3.27-4.06.53-.34.04-1.18-.49-.85-2.28,1.45-3.79,3.9-4.22,6.53-.04.06-.08.11-.12.16.03-.21.05-.43.09-.64.37-2.16,1.08-4.3,2.81-5.75.48-.4-.21-1.09-.69-.69-1.91,1.59-2.71,4-3.1,6.38-.14.88-.24,1.76-.32,2.65-.03.06-.06.13-.09.19-.47-1.75-.51-3.62-.04-5.41.16-.61-.78-.87-.94-.26-.61,2.35-.46,4.86.41,7.11l-4.17,3.34c-6.23,5.09-5.38,21.79-2.26,31.7,3.11,9.91,18.68,18.4,19.24,20.94.57,2.55,0,6.23,0,6.23,0,0-1.13.57-3.4.85-2.26.28-3.11,1.98-2.83,3.11.28,1.13.85,5.09.81,6.27-.04,1.18-.81,3.35-.81,3.35,0,0,1.13.57.57.85Z"/><path class="cls-6" d="m415.91,217.98c-1.79-1.87-2.69-4.93-2.69-9.19,0-2.88.46-5.21,1.38-6.97.92-1.77,2.11-3.03,3.59-3.8,1.47-.76,3.09-1.15,4.86-1.15,2.97,0,5.35.93,7.14,2.8,1.79,1.87,2.69,4.93,2.69,9.19,0,2.88-.46,5.21-1.38,6.98-.92,1.77-2.11,3.03-3.59,3.8-1.47.77-3.09,1.15-4.86,1.15-2.97,0-5.35-.93-7.14-2.8Zm9.96.07c.96-.32,1.74-.73,2.32-1.23.5-.61.96-1.65,1.38-3.13.41-1.47.62-3.04.62-4.7,0-3.19-.61-5.63-1.82-7.32-1.21-1.69-2.93-2.54-5.16-2.54-1.03,0-2.05.17-3.06.51s-1.83.76-2.44,1.26c-.48.59-.9,1.63-1.26,3.11-.36,1.49-.54,3.08-.54,4.78,0,3.21.59,5.63,1.77,7.27,1.18,1.64,2.9,2.46,5.17,2.46,1.05,0,2.05-.16,3.01-.47Z"/><path class="cls-6" d="m454.01,201.1c-.16.68-.25,1.43-.25,2.26v.52h5.86l-.3,2h-5.57v14.74h-2.62v-14.74h-3.05l.29-2h2.75c.04-2.16.54-3.87,1.49-5.13.95-1.25,2.44-1.88,4.47-1.88.44,0,.96.07,1.57.2.61.13,1.21.32,1.8.56l-.49,1.74c-.94-.28-1.86-.43-2.75-.43-1.07,0-1.95.25-2.65.75-.22.26-.41.73-.57,1.41Z"/><path class="cls-6" d="m478.91,203.88v16.73h-2.19l-.33-1.51c-1.29.59-2.32,1.01-3.11,1.28s-1.59.39-2.42.39c-2.25,0-3.8-.63-4.65-1.88-.85-1.25-1.28-2.76-1.28-4.5v-10.51h2.62v10.25c0,1.55.28,2.69.84,3.41s1.61,1.08,3.16,1.08c.98-.17,2.56-.52,4.75-1.05v-13.69h2.62Z"/><path class="cls-6" d="m496.14,218.26l-.33,1.83c-.42.2-.91.35-1.47.46-.57.11-1.06.16-1.47.16-1.49,0-2.61-.26-3.37-.77-.76-.51-1.28-1.22-1.54-2.13-.26-.91-.39-2.06-.39-3.45v-8.48h-3.05l.3-2h2.82l.95-4.13h1.6v4.13h5.83l-.29,2h-5.53v8.81c0,1.38.17,2.38.52,3.01.35.63,1.07.95,2.16.95,1.38,0,2.47-.13,3.27-.39Z"/><path class="cls-6" d="m515.75,203.88v16.73h-2.19l-.33-1.51c-1.29.59-2.32,1.01-3.11,1.28s-1.59.39-2.42.39c-2.25,0-3.8-.63-4.65-1.88-.85-1.25-1.28-2.76-1.28-4.5v-10.51h2.62v10.25c0,1.55.28,2.69.84,3.41s1.61,1.08,3.16,1.08c.98-.17,2.56-.52,4.75-1.05v-13.69h2.62Z"/><path class="cls-6" d="m532.88,203.85l-.65,2.13c-.61-.09-1.38-.13-2.29-.13-.61.11-1.24.25-1.9.43-.65.18-1.34.37-2.06.59v13.75h-2.62v-16.73h2.16l.36,1.44c1.16-.57,2.13-.99,2.91-1.28.79-.28,1.51-.43,2.16-.43.76,0,1.41.08,1.93.23Z"/><path class="cls-6" d="m538.4,218.55c-1.36-1.48-2.05-3.61-2.05-6.39,0-1.81.35-3.36,1.05-4.65.7-1.29,1.62-2.26,2.77-2.91,1.15-.66,2.41-.98,3.78-.98,2.34,0,4.19.73,5.57,2.18,1.38,1.45,2.06,3.56,2.06,6.34,0,1.92-.34,3.53-1.01,4.83-.68,1.3-1.59,2.26-2.75,2.88-1.16.62-2.45.93-3.86.93-2.34,0-4.19-.74-5.55-2.23Zm7.68-.13c.55-.22,1.09-.52,1.64-.92.35-.39.64-1.09.88-2.09.24-1,.36-2.1.36-3.28,0-2.12-.43-3.73-1.28-4.83-.85-1.1-2.08-1.65-3.7-1.65-1.42,0-2.69.43-3.8,1.28-.35.37-.64,1.04-.87,2.01-.23.97-.34,2.05-.34,3.23,0,2.14.43,3.77,1.28,4.9.85,1.12,2.1,1.69,3.73,1.69.85,0,1.55-.11,2.1-.33Z"/><path class="cls-6" d="m581.56,205.52c.88,1.27,1.33,2.76,1.33,4.49v10.61h-2.62v-10.35c0-1.55-.29-2.69-.87-3.41-.58-.72-1.64-1.08-3.19-1.08-.94.15-2.55.55-4.85,1.18v13.66h-2.62v-16.73h2.16l.36,1.47c1.38-.61,2.46-1.05,3.24-1.33s1.57-.41,2.36-.41c2.25,0,3.81.63,4.7,1.9Z"/><path class="cls-6" d="m591.39,218.55c-1.36-1.48-2.05-3.61-2.05-6.39,0-1.81.35-3.36,1.05-4.65.7-1.29,1.62-2.26,2.77-2.91,1.15-.66,2.41-.98,3.78-.98,2.34,0,4.19.73,5.57,2.18,1.38,1.45,2.06,3.56,2.06,6.34,0,1.92-.34,3.53-1.01,4.83-.68,1.3-1.59,2.26-2.75,2.88-1.16.62-2.45.93-3.86.93-2.34,0-4.19-.74-5.55-2.23Zm7.68-.13c.55-.22,1.09-.52,1.64-.92.35-.39.64-1.09.88-2.09.24-1,.36-2.1.36-3.28,0-2.12-.43-3.73-1.28-4.83-.85-1.1-2.08-1.65-3.7-1.65-1.42,0-2.69.43-3.8,1.28-.35.37-.64,1.04-.87,2.01-.23.97-.34,2.05-.34,3.23,0,2.14.43,3.77,1.28,4.9.85,1.12,2.1,1.69,3.73,1.69.85,0,1.55-.11,2.1-.33Z"/><path class="cls-6" d="m612.38,220.47c-.93-.21-1.74-.46-2.44-.77l.43-1.74c.65.22,1.45.39,2.37.52.93.13,1.85.2,2.77.2,1.33,0,2.37-.19,3.11-.56.44-.46.65-1.11.65-1.96,0-.72-.18-1.27-.52-1.65-.35-.38-.83-.67-1.44-.87-.61-.2-1.59-.44-2.95-.72-2.75-.61-4.13-2.06-4.13-4.36,0-1.66.62-2.9,1.87-3.72,1.24-.82,2.83-1.23,4.75-1.23.59,0,1.29.09,2.1.26s1.53.38,2.16.62l-.43,1.7c-1.11-.37-2.48-.56-4.09-.56-.65,0-1.29.05-1.9.16s-1.11.27-1.51.49c-.46.44-.69,1.08-.69,1.93,0,.59.15,1.05.44,1.39.3.34.67.58,1.11.74.45.15,1.05.32,1.82.49.31.07.68.15,1.11.26,1.66.39,2.85.97,3.57,1.74.72.76,1.08,1.78,1.08,3.05,0,3.25-2.15,4.88-6.45,4.88-.94,0-1.87-.1-2.8-.31Z"/><path class="cls-6" d="m652.18,203.88v16.73h-2.19l-.33-1.51c-1.29.59-2.32,1.01-3.11,1.28s-1.59.39-2.42.39c-2.25,0-3.8-.63-4.65-1.88-.85-1.25-1.28-2.76-1.28-4.5v-10.51h2.62v10.25c0,1.55.28,2.69.84,3.41s1.61,1.08,3.16,1.08c.98-.17,2.56-.52,4.75-1.05v-13.69h2.62Z"/><path class="cls-6" d="m672.6,205.52c.88,1.27,1.33,2.76,1.33,4.49v10.61h-2.62v-10.35c0-1.55-.29-2.69-.87-3.41-.58-.72-1.64-1.08-3.19-1.08-.94.15-2.55.55-4.85,1.18v13.66h-2.62v-16.73h2.16l.36,1.47c1.38-.61,2.46-1.05,3.24-1.33s1.57-.41,2.36-.41c2.25,0,3.81.63,4.7,1.9Z"/><path class="cls-6" d="m684.44,217.29c.89.97,2.23,1.46,4,1.46s3.29-.22,4.68-.65l-.36,1.74c-1.49.63-2.89.95-4.22.95-5.44,0-8.15-2.86-8.15-8.58,0-1.85.34-3.43,1.03-4.71.69-1.29,1.62-2.25,2.78-2.9,1.17-.64,2.45-.97,3.85-.97,1.77,0,3.2.43,4.31,1.28,1.1.85,1.65,2.22,1.65,4.09,0,1.42-.45,2.48-1.36,3.19-.91.71-2.3,1.06-4.18,1.06-.63,0-1.48-.03-2.54-.08-1.06-.05-2.06-.13-3-.21.11,1.92.61,3.37,1.51,4.34Zm-.2-10.33c-.28.33-.55.88-.8,1.67-.25.79-.42,1.66-.51,2.62h1.74c1.18,0,2.42-.02,3.73-.07,1.27-.07,2.16-.23,2.69-.49.31-.33.46-1.06.46-2.19,0-.87-.31-1.58-.93-2.13-.62-.54-1.48-.82-2.57-.82-1.38,0-2.64.47-3.8,1.41Z"/><path class="cls-6" d="m700.11,220.32c-.32-.31-.47-.76-.47-1.38,0-.28.04-.57.13-.85s.2-.49.33-.62c.33-.26.77-.39,1.34-.39s1.04.16,1.36.47c.32.32.47.78.47,1.39,0,.28-.05.57-.15.85-.1.28-.21.48-.34.59-.33.26-.78.39-1.34.39s-1.01-.15-1.33-.46Z"/><path class="cls-6" d="m251.34,125.67c4.56,0,8.06,1.06,10.48,3.19,2.42,2.13,3.63,5.2,3.63,9.21,0,2.37-.48,4.37-1.44,6-.96,1.63-2.27,2.94-3.91,3.94.51.55,1.01,1.29,1.49,2.21l6.59,12.51h-10.71l-4.89-10.45c-.34-.75-.81-1.26-1.39-1.52-.58-.26-1.36-.39-2.32-.39h-2.21v12.35h-9.37v-37.06h14.05Zm3.6,15.96c.55-.82.82-2.06.82-3.71s-.5-2.81-1.49-3.47-2.66-1-4.99-1h-2.62v8.96h3.04c2.64,0,4.39-.26,5.25-.77Z"/><path class="cls-6" d="m277.39,125.67l1.29,6.8v30.27h-10.19v-37.06h8.9Z"/><path class="cls-6" d="m285.83,158.31c-2.85-3.19-4.27-7.91-4.27-14.16,0-3.95.67-7.33,2.01-10.14,1.34-2.81,3.27-4.97,5.79-6.46,2.52-1.49,5.53-2.24,9.03-2.24,5.56,0,9.75,1.58,12.56,4.74s4.22,7.89,4.22,14.21c0,3.91-.67,7.28-2.01,10.12-1.34,2.83-3.27,4.99-5.79,6.49-2.52,1.49-5.52,2.24-8.98,2.24-5.53,0-9.71-1.6-12.56-4.79Zm15.21-3.71c.77-.21,1.5-.53,2.19-.98.55-.79.98-1.92,1.29-3.4.31-1.47.46-3.17.46-5.1,0-2.85-.2-5.1-.59-6.77-.39-1.66-1.05-2.89-1.98-3.68s-2.2-1.18-3.81-1.18c-1.13,0-2.07.14-2.81.41-.74.28-1.47.65-2.19,1.13-1.24,1.68-1.85,4.44-1.85,8.29,0,2.85.21,5.1.62,6.77s1.09,2.88,2.03,3.65c.94.77,2.24,1.16,3.89,1.16,1.06,0,1.98-.1,2.75-.31Z"/><path class="cls-6" d="m331.8,158.41c-2.85-3.05-4.27-7.81-4.27-14.26,0-6.04,1.57-10.69,4.71-13.95,3.14-3.26,7.65-4.89,13.51-4.89,1.85,0,3.79.2,5.82.59,2.02.4,3.72.9,5.1,1.52l-1.85,7.62c-.89-.34-2.09-.67-3.6-.98s-2.93-.46-4.27-.46c-1.78,0-3.31.16-4.58.49-1.27.33-2.23.71-2.88,1.16-1.24,1.79-1.85,4.6-1.85,8.44,0,2.78.27,5,.82,6.67.55,1.66,1.41,2.87,2.57,3.63,1.17.76,2.73,1.13,4.69,1.13.93,0,1.9-.09,2.93-.26v-5.77h-4.48v-7.93h13.08v19.3c-1.27.62-3.02,1.19-5.25,1.72-2.23.53-4.53.8-6.9.8-6,0-10.43-1.53-13.28-4.58Z"/><path class="cls-6" d="m374.63,125.67c4.56,0,8.06,1.06,10.48,3.19,2.42,2.13,3.63,5.2,3.63,9.21,0,2.37-.48,4.37-1.44,6-.96,1.63-2.27,2.94-3.91,3.94.52.55,1.01,1.29,1.49,2.21l6.59,12.51h-10.71l-4.89-10.45c-.34-.75-.81-1.26-1.39-1.52s-1.36-.39-2.32-.39h-2.21v12.35h-9.37v-37.06h14.05Zm3.6,15.96c.55-.82.82-2.06.82-3.71s-.5-2.81-1.49-3.47c-1-.67-2.66-1-4.99-1h-2.63v8.96h3.04c2.64,0,4.39-.26,5.25-.77Z"/><path class="cls-6" d="m412.87,155.02h-11.02l-2.42,7.72h-9.88l12.66-37.06h10.91l12.56,37.06h-10.5l-2.32-7.72Zm-5.41-19.1l-3.55,11.48h6.95l-3.4-11.48Z"/><path class="cls-6" d="m434.34,125.67l13.02,20.69v-20.69h7.67l1.29,6.85v30.22h-8.29l-12.92-20.02v20.02h-8.96v-37.06h8.18Z"/><path class="cls-6" d="m474.08,125.67c11.81,0,17.71,6.16,17.71,18.48,0,6.14-1.49,10.78-4.48,13.9-2.98,3.12-7.39,4.69-13.23,4.69h-14.05v-37.06h14.05Zm3.14,28.54c1.03-.22,1.92-.59,2.68-1.11,1.13-1.65,1.7-4.63,1.7-8.96,0-3.57-.6-6.18-1.8-7.82-1.2-1.65-3.11-2.47-5.71-2.47h-4.07v20.69h3.35c1.54,0,2.83-.11,3.86-.33Z"/><path class="cls-6" d="m520.51,125.67l-1.03,8.19h-14.98v5.97h13.18v8.19h-13.18v6.54h16.32l-1.03,8.19h-25.12v-37.06h25.84Z"/><path class="cls-6" d="m546.92,125.67c11.81,0,17.71,6.16,17.71,18.48,0,6.14-1.49,10.78-4.48,13.9-2.99,3.12-7.4,4.69-13.23,4.69h-14.05v-37.06h14.05Zm3.14,28.54c1.03-.22,1.92-.59,2.68-1.11,1.13-1.65,1.7-4.63,1.7-8.96,0-3.57-.6-6.18-1.8-7.82-1.2-1.65-3.11-2.47-5.72-2.47h-4.07v20.69h3.35c1.54,0,2.83-.11,3.86-.33Z"/><path class="cls-6" d="m570.96,158.31c-2.85-3.19-4.27-7.91-4.27-14.16,0-3.95.67-7.33,2.01-10.14,1.34-2.81,3.27-4.97,5.79-6.46,2.52-1.49,5.53-2.24,9.03-2.24,5.56,0,9.75,1.58,12.56,4.74,2.81,3.16,4.22,7.89,4.22,14.21,0,3.91-.67,7.28-2.01,10.12-1.34,2.83-3.27,4.99-5.79,6.49-2.52,1.49-5.52,2.24-8.98,2.24-5.53,0-9.71-1.6-12.56-4.79Zm15.21-3.71c.77-.21,1.5-.53,2.19-.98.55-.79.98-1.92,1.29-3.4.31-1.47.46-3.17.46-5.1,0-2.85-.2-5.1-.59-6.77-.4-1.66-1.06-2.89-1.98-3.68-.93-.79-2.2-1.18-3.81-1.18-1.13,0-2.07.14-2.81.41-.74.28-1.47.65-2.19,1.13-1.24,1.68-1.85,4.44-1.85,8.29,0,2.85.21,5.1.62,6.77.41,1.66,1.09,2.88,2.03,3.65.94.77,2.24,1.16,3.89,1.16,1.06,0,1.98-.1,2.75-.31Z"/><path class="cls-6" d="m611.73,160.73l1.75-7.46c1.99.55,3.69.94,5.1,1.16,1.41.22,3.21.33,5.4.33,1.41,0,2.44-.04,3.09-.13.65-.08,1.2-.25,1.65-.49.45-.65.67-1.39.67-2.21,0-.65-.17-1.18-.51-1.6s-1.03-.81-2.06-1.18c-1.03-.38-2.59-.77-4.69-1.18-3.3-.65-5.73-1.89-7.31-3.71-1.58-1.82-2.37-4.24-2.37-7.26,0-3.81,1.34-6.71,4.01-8.7s6.52-2.99,11.53-2.99c1.72,0,3.51.2,5.38.59,1.87.4,3.47.85,4.81,1.36l-1.75,7.67c-2.85-.86-5.46-1.29-7.82-1.29-2.99,0-4.99.31-6.02.93-.34.55-.52,1.17-.52,1.85,0,.89.35,1.53,1.06,1.91.7.38,2.08.82,4.14,1.34.24.03.6.12,1.08.26,2.71.65,4.86,1.46,6.43,2.42,1.58.96,2.73,2.17,3.45,3.63.72,1.46,1.08,3.29,1.08,5.48,0,3.91-1.24,6.83-3.73,8.75-2.49,1.92-6.22,2.88-11.2,2.88-4.46,0-8.68-.79-12.66-2.37Z"/><path class="cls-6" d="m647.37,161.19c-2.18-1.27-3.74-3.18-4.68-5.74-.94-2.56-1.42-5.88-1.42-9.96v-19.82h8.9l1.29,6.64v13.23c0,2.51.15,4.42.44,5.74.29,1.32.78,2.25,1.47,2.78.69.53,1.66.8,2.93.8,1.06,0,1.88-.07,2.45-.21.57-.14,1.07-.39,1.52-.77.45-.72.75-1.8.9-3.24.15-1.44.23-3.28.23-5.51v-19.46h8.91l1.29,6.64v13.18c0,5.83-1.2,10.23-3.6,13.18-2.4,2.95-6.32,4.43-11.74,4.43-3.74,0-6.7-.63-8.88-1.9Z"/><path class="cls-6" d="m683.69,125.67l1.29,6.74v21.88h15.24l-1.03,8.44h-24.4v-37.06h8.91Z"/><path class="cls-6" d="m238.7,108.58c-1.41-1.41-2.11-3.72-2.11-6.94,0-6,2.8-9,8.41-9,.79,0,1.57.08,2.34.25s1.41.36,1.94.59l-.35,1.48c-.71-.2-1.34-.35-1.9-.44-.56-.1-1.23-.15-2-.15-1.15,0-2.15.13-2.98.38-.83.26-1.51.59-2.02,1-.36.48-.69,1.25-.98,2.31-.29,1.06-.43,2.25-.43,3.57,0,2.49.47,4.33,1.41,5.51.94,1.19,2.36,1.78,4.25,1.78,1.29,0,2.46-.14,3.51-.42v-5.42h-3.76v-1.78h5.64v8.21c-.84.36-1.75.65-2.73.85s-1.83.31-2.53.31c-2.39,0-4.29-.7-5.7-2.11Z"/><path class="cls-6" d="m257.11,108.58c-1.35-1.41-2.03-3.72-2.03-6.94,0-2.18.34-3.93,1.04-5.27.69-1.34,1.6-2.29,2.71-2.87,1.11-.58,2.34-.87,3.67-.87,2.24,0,4.04.7,5.39,2.11,1.35,1.41,2.03,3.72,2.03,6.94,0,2.18-.35,3.93-1.04,5.27-.69,1.34-1.59,2.29-2.71,2.87-1.11.58-2.34.87-3.67.87-2.24,0-4.04-.7-5.39-2.11Zm7.52.05c.72-.24,1.31-.55,1.75-.93.38-.46.73-1.25,1.04-2.36.31-1.11.47-2.3.47-3.55,0-2.41-.46-4.25-1.37-5.53-.91-1.28-2.21-1.92-3.89-1.92-.78,0-1.55.13-2.31.38s-1.38.57-1.84.95c-.36.44-.68,1.23-.95,2.35-.27,1.12-.41,2.32-.41,3.61,0,2.42.45,4.25,1.34,5.49.89,1.24,2.19,1.85,3.91,1.85.79,0,1.55-.12,2.27-.36Z"/><path class="cls-6" d="m275.56,92.76l5.42,15.73,5.61-15.73h1.93l-6.48,17.81h-2.27l-6.26-17.81h2.05Z"/><path class="cls-6" d="m304.05,92.76l-.25,1.73h-8.73v5.98h7.54v1.76h-7.54v6.6h9.22l-.25,1.73h-10.98v-17.81h10.98Z"/><path class="cls-6" d="m314.33,92.76c2.19,0,3.85.39,4.97,1.16,1.12.77,1.7,2.09,1.73,3.93-.05,2.36-1.13,3.89-3.24,4.6.2.16.37.37.53.61.16.24.34.56.56.95l3.54,6.55h-2.35l-3.29-6.23c-.28-.53-.66-.9-1.14-1.1-.48-.21-1.26-.31-2.35-.31h-1.95v7.64h-1.95v-17.81h4.95Zm2.29,8.33c.65-.1,1.17-.27,1.55-.52.26-.33.47-.7.61-1.12.14-.42.21-.94.21-1.57,0-.94-.17-1.65-.51-2.14-.34-.49-.84-.81-1.51-.98-.67-.16-1.59-.25-2.76-.25h-2.87v6.73h2.82c.99,0,1.81-.05,2.46-.15Z"/><path class="cls-6" d="m328.9,92.76l9.2,14.52v-14.52h1.41l.4,1.66v16.15h-1.88l-9.22-14.54v14.54h-1.81v-17.81h1.9Z"/><path class="cls-6" d="m347.99,108.58c-1.35-1.41-2.03-3.72-2.03-6.94,0-2.18.35-3.93,1.04-5.27s1.59-2.29,2.71-2.87c1.11-.58,2.34-.87,3.67-.87,2.24,0,4.04.7,5.39,2.11s2.03,3.72,2.03,6.94c0,2.18-.35,3.93-1.04,5.27-.69,1.34-1.59,2.29-2.71,2.87-1.11.58-2.34.87-3.67.87-2.24,0-4.04-.7-5.39-2.11Zm7.52.05c.73-.24,1.31-.55,1.76-.93.38-.46.73-1.25,1.04-2.36.31-1.11.47-2.3.47-3.55,0-2.41-.46-4.25-1.37-5.53-.91-1.28-2.21-1.92-3.9-1.92-.77,0-1.55.13-2.31.38-.77.26-1.38.57-1.84.95-.36.44-.68,1.23-.95,2.35-.27,1.12-.41,2.32-.41,3.61,0,2.42.45,4.25,1.33,5.49.89,1.24,2.19,1.85,3.91,1.85.79,0,1.55-.12,2.27-.36Z"/><path class="cls-6" d="m380.98,92.76c2.46,0,4.38.68,5.77,2.04s2.09,3.66,2.09,6.89-.68,5.42-2.04,6.8c-1.36,1.38-3.3,2.08-5.82,2.08h-5.71v-17.81h5.71Zm4.38,14.84c.4-.49.74-1.24,1.03-2.25.29-1.01.43-2.23.43-3.66,0-2.52-.48-4.35-1.44-5.49-.96-1.14-2.4-1.71-4.33-1.71h-3.78v14.34h3.61c2,0,3.49-.41,4.48-1.24Z"/><path class="cls-6" d="m396.21,108.58c-1.35-1.41-2.03-3.72-2.03-6.94,0-2.18.34-3.93,1.04-5.27.69-1.34,1.6-2.29,2.71-2.87,1.11-.58,2.34-.87,3.67-.87,2.24,0,4.04.7,5.39,2.11,1.35,1.41,2.03,3.72,2.03,6.94,0,2.18-.35,3.93-1.04,5.27-.69,1.34-1.59,2.29-2.71,2.87-1.11.58-2.34.87-3.67.87-2.24,0-4.04-.7-5.39-2.11Zm7.52.05c.72-.24,1.31-.55,1.75-.93.38-.46.73-1.25,1.04-2.36s.47-2.3.47-3.55c0-2.41-.46-4.25-1.37-5.53-.91-1.28-2.21-1.92-3.89-1.92-.78,0-1.55.13-2.31.38s-1.38.57-1.84.95c-.36.44-.68,1.23-.95,2.35-.27,1.12-.41,2.32-.41,3.61,0,2.42.45,4.25,1.34,5.49.89,1.24,2.19,1.85,3.91,1.85.79,0,1.55-.12,2.27-.36Z"/><path class="cls-6" d="m434.46,92.76l-.25,1.73h-8.73v5.98h7.54v1.76h-7.54v6.6h9.22l-.25,1.73h-10.98v-17.81h10.98Z"/><path class="cls-6" d="m440.92,110.42c-.89-.18-1.7-.42-2.42-.72l.42-1.53c.71.21,1.48.4,2.31.56.83.16,1.58.23,2.24.23,1.88,0,3.19-.24,3.93-.72.26-.33.44-.68.54-1.04.1-.36.15-.82.15-1.36,0-.84-.18-1.48-.53-1.92-.35-.44-.85-.76-1.48-.96-.63-.21-1.73-.49-3.28-.85-1.22-.28-2.19-.74-2.9-1.38-.72-.64-1.08-1.62-1.08-2.94,0-1.75.6-3.04,1.79-3.88,1.2-.84,2.77-1.26,4.74-1.26,1.2,0,2.56.27,4.08.82l-.37,1.53c-1.48-.41-2.83-.62-4.03-.62-1.53,0-2.74.31-3.61.91-.43.54-.64,1.25-.64,2.13,0,.76.16,1.34.47,1.74s.71.69,1.17.87c.47.17,1.12.34,1.94.51.49.1.87.18,1.11.25,1.17.3,2.09.65,2.77,1.05.68.4,1.16.91,1.46,1.51.3.6.45,1.36.45,2.26,0,1.83-.57,3.14-1.72,3.92-1.15.78-2.73,1.17-4.76,1.17-.94,0-1.86-.09-2.75-.27Z"/><path class="cls-6" d="m466.66,94.52h-5.46v16.05h-2v-16.05h-5.74l.25-1.76h13.21l-.25,1.76Z"/><path class="cls-6" d="m478.9,105.25h-7.27l-1.95,5.32h-1.93l6.68-17.81h2l6.5,17.81h-2.2l-1.83-5.32Zm-6.73-1.73h6.18l-2.99-8.78-3.19,8.78Z"/><path class="cls-6" d="m493.2,92.76c2.46,0,4.38.68,5.77,2.04,1.39,1.36,2.09,3.66,2.09,6.89s-.68,5.42-2.04,6.8-3.3,2.08-5.82,2.08h-5.71v-17.81h5.71Zm4.38,14.84c.4-.49.74-1.24,1.03-2.25.29-1.01.43-2.23.43-3.66,0-2.52-.48-4.35-1.43-5.49s-2.4-1.71-4.33-1.71h-3.78v14.34h3.61c1.99,0,3.49-.41,4.48-1.24Z"/><path class="cls-6" d="m508.43,108.58c-1.35-1.41-2.03-3.72-2.03-6.94,0-2.18.35-3.93,1.04-5.27s1.59-2.29,2.71-2.87c1.11-.58,2.34-.87,3.67-.87,2.24,0,4.04.7,5.39,2.11s2.03,3.72,2.03,6.94c0,2.18-.35,3.93-1.04,5.27-.69,1.34-1.59,2.29-2.71,2.87-1.11.58-2.34.87-3.67.87-2.24,0-4.04-.7-5.39-2.11Zm7.52.05c.73-.24,1.31-.55,1.76-.93.38-.46.73-1.25,1.04-2.36.31-1.11.47-2.3.47-3.55,0-2.41-.46-4.25-1.37-5.53-.91-1.28-2.21-1.92-3.9-1.92-.77,0-1.55.13-2.31.38-.77.26-1.38.57-1.84.95-.36.44-.68,1.23-.95,2.35-.27,1.12-.41,2.32-.41,3.61,0,2.42.45,4.25,1.33,5.49.89,1.24,2.19,1.85,3.91,1.85.79,0,1.55-.12,2.27-.36Z"/><path class="cls-6" d="m415.91,217.98c-1.79-1.87-2.69-4.93-2.69-9.19,0-2.88.46-5.21,1.38-6.97.92-1.77,2.11-3.03,3.59-3.8,1.47-.76,3.09-1.15,4.86-1.15,2.97,0,5.35.93,7.14,2.8,1.79,1.87,2.69,4.93,2.69,9.19,0,2.88-.46,5.21-1.38,6.98-.92,1.77-2.11,3.03-3.59,3.8-1.47.77-3.09,1.15-4.86,1.15-2.97,0-5.35-.93-7.14-2.8Zm9.96.07c.96-.32,1.74-.73,2.32-1.23.5-.61.96-1.65,1.38-3.13.41-1.47.62-3.04.62-4.7,0-3.19-.61-5.63-1.82-7.32-1.21-1.69-2.93-2.54-5.16-2.54-1.03,0-2.05.17-3.06.51s-1.83.76-2.44,1.26c-.48.59-.9,1.63-1.26,3.11-.36,1.49-.54,3.08-.54,4.78,0,3.21.59,5.63,1.77,7.27,1.18,1.64,2.9,2.46,5.17,2.46,1.05,0,2.05-.16,3.01-.47Z"/><path class="cls-6" d="m454.01,201.1c-.16.68-.25,1.43-.25,2.26v.52h5.86l-.3,2h-5.57v14.74h-2.62v-14.74h-3.05l.29-2h2.75c.04-2.16.54-3.87,1.49-5.13.95-1.25,2.44-1.88,4.47-1.88.44,0,.96.07,1.57.2.61.13,1.21.32,1.8.56l-.49,1.74c-.94-.28-1.86-.43-2.75-.43-1.07,0-1.95.25-2.65.75-.22.26-.41.73-.57,1.41Z"/><path class="cls-6" d="m478.91,203.88v16.73h-2.19l-.33-1.51c-1.29.59-2.32,1.01-3.11,1.28s-1.59.39-2.42.39c-2.25,0-3.8-.63-4.65-1.88-.85-1.25-1.28-2.76-1.28-4.5v-10.51h2.62v10.25c0,1.55.28,2.69.84,3.41s1.61,1.08,3.16,1.08c.98-.17,2.56-.52,4.75-1.05v-13.69h2.62Z"/><path class="cls-6" d="m496.14,218.26l-.33,1.83c-.42.2-.91.35-1.47.46-.57.11-1.06.16-1.47.16-1.49,0-2.61-.26-3.37-.77-.76-.51-1.28-1.22-1.54-2.13-.26-.91-.39-2.06-.39-3.45v-8.48h-3.05l.3-2h2.82l.95-4.13h1.6v4.13h5.83l-.29,2h-5.53v8.81c0,1.38.17,2.38.52,3.01.35.63,1.07.95,2.16.95,1.38,0,2.47-.13,3.27-.39Z"/><path class="cls-6" d="m515.75,203.88v16.73h-2.19l-.33-1.51c-1.29.59-2.32,1.01-3.11,1.28s-1.59.39-2.42.39c-2.25,0-3.8-.63-4.65-1.88-.85-1.25-1.28-2.76-1.28-4.5v-10.51h2.62v10.25c0,1.55.28,2.69.84,3.41s1.61,1.08,3.16,1.08c.98-.17,2.56-.52,4.75-1.05v-13.69h2.62Z"/><path class="cls-6" d="m532.88,203.85l-.65,2.13c-.61-.09-1.38-.13-2.29-.13-.61.11-1.24.25-1.9.43-.65.18-1.34.37-2.06.59v13.75h-2.62v-16.73h2.16l.36,1.44c1.16-.57,2.13-.99,2.91-1.28.79-.28,1.51-.43,2.16-.43.76,0,1.41.08,1.93.23Z"/><path class="cls-6" d="m538.4,218.55c-1.36-1.48-2.05-3.61-2.05-6.39,0-1.81.35-3.36,1.05-4.65.7-1.29,1.62-2.26,2.77-2.91,1.15-.66,2.41-.98,3.78-.98,2.34,0,4.19.73,5.57,2.18,1.38,1.45,2.06,3.56,2.06,6.34,0,1.92-.34,3.53-1.01,4.83-.68,1.3-1.59,2.26-2.75,2.88-1.16.62-2.45.93-3.86.93-2.34,0-4.19-.74-5.55-2.23Zm7.68-.13c.55-.22,1.09-.52,1.64-.92.35-.39.64-1.09.88-2.09.24-1,.36-2.1.36-3.28,0-2.12-.43-3.73-1.28-4.83-.85-1.1-2.08-1.65-3.7-1.65-1.42,0-2.69.43-3.8,1.28-.35.37-.64,1.04-.87,2.01-.23.97-.34,2.05-.34,3.23,0,2.14.43,3.77,1.28,4.9.85,1.12,2.1,1.69,3.73,1.69.85,0,1.55-.11,2.1-.33Z"/><path class="cls-6" d="m581.56,205.52c.88,1.27,1.33,2.76,1.33,4.49v10.61h-2.62v-10.35c0-1.55-.29-2.69-.87-3.41-.58-.72-1.64-1.08-3.19-1.08-.94.15-2.55.55-4.85,1.18v13.66h-2.62v-16.73h2.16l.36,1.47c1.38-.61,2.46-1.05,3.24-1.33s1.57-.41,2.36-.41c2.25,0,3.81.63,4.7,1.9Z"/><path class="cls-6" d="m591.39,218.55c-1.36-1.48-2.05-3.61-2.05-6.39,0-1.81.35-3.36,1.05-4.65.7-1.29,1.62-2.26,2.77-2.91,1.15-.66,2.41-.98,3.78-.98,2.34,0,4.19.73,5.57,2.18,1.38,1.45,2.06,3.56,2.06,6.34,0,1.92-.34,3.53-1.01,4.83-.68,1.3-1.59,2.26-2.75,2.88-1.16.62-2.45.93-3.86.93-2.34,0-4.19-.74-5.55-2.23Zm7.68-.13c.55-.22,1.09-.52,1.64-.92.35-.39.64-1.09.88-2.09.24-1,.36-2.1.36-3.28,0-2.12-.43-3.73-1.28-4.83-.85-1.1-2.08-1.65-3.7-1.65-1.42,0-2.69.43-3.8,1.28-.35.37-.64,1.04-.87,2.01-.23.97-.34,2.05-.34,3.23,0,2.14.43,3.77,1.28,4.9.85,1.12,2.1,1.69,3.73,1.69.85,0,1.55-.11,2.1-.33Z"/><path class="cls-6" d="m612.38,220.47c-.93-.21-1.74-.46-2.44-.77l.43-1.74c.65.22,1.45.39,2.37.52.93.13,1.85.2,2.77.2,1.33,0,2.37-.19,3.11-.56.44-.46.65-1.11.65-1.96,0-.72-.18-1.27-.52-1.65-.35-.38-.83-.67-1.44-.87-.61-.2-1.59-.44-2.95-.72-2.75-.61-4.13-2.06-4.13-4.36,0-1.66.62-2.9,1.87-3.72,1.24-.82,2.83-1.23,4.75-1.23.59,0,1.29.09,2.1.26s1.53.38,2.16.62l-.43,1.7c-1.11-.37-2.48-.56-4.09-.56-.65,0-1.29.05-1.9.16s-1.11.27-1.51.49c-.46.44-.69,1.08-.69,1.93,0,.59.15,1.05.44,1.39.3.34.67.58,1.11.74.45.15,1.05.32,1.82.49.31.07.68.15,1.11.26,1.66.39,2.85.97,3.57,1.74.72.76,1.08,1.78,1.08,3.05,0,3.25-2.15,4.88-6.45,4.88-.94,0-1.87-.1-2.8-.31Z"/><path class="cls-6" d="m652.18,203.88v16.73h-2.19l-.33-1.51c-1.29.59-2.32,1.01-3.11,1.28s-1.59.39-2.42.39c-2.25,0-3.8-.63-4.65-1.88-.85-1.25-1.28-2.76-1.28-4.5v-10.51h2.62v10.25c0,1.55.28,2.69.84,3.41s1.61,1.08,3.16,1.08c.98-.17,2.56-.52,4.75-1.05v-13.69h2.62Z"/><path class="cls-6" d="m672.6,205.52c.88,1.27,1.33,2.76,1.33,4.49v10.61h-2.62v-10.35c0-1.55-.29-2.69-.87-3.41-.58-.72-1.64-1.08-3.19-1.08-.94.15-2.55.55-4.85,1.18v13.66h-2.62v-16.73h2.16l.36,1.47c1.38-.61,2.46-1.05,3.24-1.33s1.57-.41,2.36-.41c2.25,0,3.81.63,4.7,1.9Z"/><path class="cls-6" d="m684.44,217.29c.89.97,2.23,1.46,4,1.46s3.29-.22,4.68-.65l-.36,1.74c-1.49.63-2.89.95-4.22.95-5.44,0-8.15-2.86-8.15-8.58,0-1.85.34-3.43,1.03-4.71.69-1.29,1.62-2.25,2.78-2.9,1.17-.64,2.45-.97,3.85-.97,1.77,0,3.2.43,4.31,1.28,1.1.85,1.65,2.22,1.65,4.09,0,1.42-.45,2.48-1.36,3.19-.91.71-2.3,1.06-4.18,1.06-.63,0-1.48-.03-2.54-.08-1.06-.05-2.06-.13-3-.21.11,1.92.61,3.37,1.51,4.34Zm-.2-10.33c-.28.33-.55.88-.8,1.67-.25.79-.42,1.66-.51,2.62h1.74c1.18,0,2.42-.02,3.73-.07,1.27-.07,2.16-.23,2.69-.49.31-.33.46-1.06.46-2.19,0-.87-.31-1.58-.93-2.13-.62-.54-1.48-.82-2.57-.82-1.38,0-2.64.47-3.8,1.41Z"/><path class="cls-6" d="m700.11,220.32c-.32-.31-.47-.76-.47-1.38,0-.28.04-.57.13-.85s.2-.49.33-.62c.33-.26.77-.39,1.34-.39s1.04.16,1.36.47c.32.32.47.78.47,1.39,0,.28-.05.57-.15.85-.1.28-.21.48-.34.59-.33.26-.78.39-1.34.39s-1.01-.15-1.33-.46Z"/><path class="cls-6" d="m699.39,181.85H.5c-.28,0-.5-.22-.5-.5s.22-.5.5-.5h698.89c.28,0,.5.22.5.5s-.22.5-.5.5Z"/></g></g></svg>